<?xml version="1.0" encoding="UTF-8"?>
<svg version="1.1" xmlns="http://www.w3.org/2000/svg" width="1080" height="1080">
<path d="M0 0 C356.4 0 712.8 0 1080 0 C1080 356.4 1080 712.8 1080 1080 C723.6 1080 367.2 1080 0 1080 C0 723.6 0 367.2 0 0 Z " fill="#1E1E2F" transform="translate(0,0)"/>
<path d="M0 0 C0.92422256 -0.00671722 1.84844513 -0.01343445 2.80067444 -0.02035522 C5.85179035 -0.03933101 8.9026862 -0.04325932 11.95385742 -0.04541016 C14.07989085 -0.05183871 16.20592339 -0.05856712 18.33195496 -0.06558228 C22.78805593 -0.07755424 27.24407939 -0.08126321 31.70019531 -0.08007812 C37.39976892 -0.07987502 43.09884343 -0.10716892 48.79829884 -0.14162254 C53.18989834 -0.16390183 57.58137796 -0.16791533 61.97302818 -0.16685867 C64.07370408 -0.16921339 66.17438335 -0.17802958 68.27500343 -0.19352341 C71.21884336 -0.21320241 74.16161014 -0.20733743 77.10546875 -0.1953125 C77.96652222 -0.20655151 78.82757568 -0.21779053 79.71472168 -0.22937012 C87.07247745 -0.15331129 93.23130747 2.19947517 98.49682617 7.47802734 C99.2934668 8.24179688 99.2934668 8.24179688 100.10620117 9.02099609 C105.9541739 17.1106917 107.68459064 27.22421221 109.96948242 36.75146484 C110.35936158 38.34911872 110.75003685 39.9465785 111.14146423 41.54385376 C112.1652648 45.72992173 113.17919902 49.91831464 114.19073486 54.10736084 C115.41616261 59.17508193 116.6522131 64.24021977 117.88778591 69.30547523 C118.85022858 73.25122634 119.81081787 77.19739018 120.76515198 81.14511108 C121.11561 82.59127611 121.46634501 84.03737404 121.81738281 85.48339844 C121.98306291 86.16617041 122.148743 86.84894238 122.3194437 87.5524044 C123.51980911 92.45918772 124.83108737 97.32694962 126.23435974 102.17935181 C126.74682617 104.29052734 126.74682617 104.29052734 126.74682617 107.29052734 C127.29147276 107.2900594 127.83611935 107.28959146 128.39727038 107.28910934 C187.68700576 107.23827605 246.97674351 107.191159 306.26649475 107.16349792 C307.59471835 107.16287667 307.59471835 107.16287667 308.94977475 107.16224286 C328.19314497 107.15326438 347.43651542 107.1449538 366.67988622 107.13733136 C376.11666899 107.13358931 385.5534517 107.12969965 394.99023438 107.12573242 C395.9293136 107.12534014 396.86839282 107.12494787 397.83592899 107.1245437 C428.28066804 107.11175697 458.7253904 107.08922102 489.17011933 107.06163568 C520.45294458 107.0333424 551.73576058 107.01487205 583.01859841 107.00878237 C587.43588186 107.00791789 591.85316527 107.00694098 596.27044868 107.00589561 C597.57454095 107.00559221 597.57454095 107.00559221 598.90497852 107.00528268 C612.90650143 107.0017359 626.90799579 106.98781732 640.90950705 106.97003124 C654.98171473 106.9523763 669.05389408 106.94562171 683.12611245 106.95002321 C691.48928119 106.95230697 699.85234632 106.94620363 708.21549637 106.92813471 C714.45705967 106.91556952 720.69852277 106.91863859 726.94008989 106.92783066 C729.46782696 106.92910146 731.9955727 106.92526775 734.52329265 106.9158778 C737.95439097 106.90387068 741.38497938 106.91030856 744.8160696 106.92138386 C745.80155976 106.91350282 746.78704992 106.90562178 747.80240342 106.89750192 C758.15974657 106.97324996 765.08555536 109.61966746 772.57104492 116.83740234 C777.91505067 122.86260092 779.05889736 128.31994212 778.94750977 136.21142578 C778.59233804 141.66084885 777.40979486 146.90227601 776.24682617 152.22802734 C775.68579982 154.91091867 775.12784869 157.59424867 774.57495117 160.27880859 C774.42709167 160.99349304 774.27923218 161.70817749 774.12689209 162.44451904 C772.25412016 171.5713697 770.6387617 180.74495815 768.99682617 189.91552734 C766.03639183 206.39843024 762.93315511 222.84985825 759.74682617 239.29052734 C756.65003206 255.27400922 753.62669085 271.2665145 750.74682617 287.29052734 C747.66682063 304.42815493 744.41296006 321.52827494 741.10131836 338.62255859 C738.22194229 353.49569388 735.4265459 368.38015197 732.74682617 383.29052734 C729.66682063 400.42815493 726.41296006 417.52827494 723.10131836 434.62255859 C720.0518471 450.37430392 717.10847127 466.14084126 714.27236938 481.93231201 C711.05917282 499.80503476 707.63441161 517.63505816 704.15893555 535.45849609 C703.75424372 537.54045061 703.34993742 539.62248011 702.94604492 541.70458984 C702.75262009 542.70018417 702.55919525 543.6957785 702.35990906 544.72154236 C701.02329525 551.67042655 699.80910183 558.632895 698.76689148 565.63235474 C697.34005639 574.79249359 693.9693613 581.10581883 686.73120117 586.88818359 C679.84339035 591.75575069 673.62094983 592.42618437 665.38354492 592.60693359 C664.59156204 592.62771469 663.79957916 592.64849579 662.9835968 592.66990662 C660.46725689 592.73500539 657.95081745 592.79410157 655.43432617 592.85302734 C653.72272756 592.89625035 652.01113882 592.93986582 650.29956055 592.98388672 C646.11541633 593.09064581 641.93117255 593.19202369 637.74682617 593.29052734 C638.73465088 593.54157227 639.72247559 593.79261719 640.74023438 594.05126953 C669.43633858 601.4489951 694.19534303 617.96704649 709.68041992 643.65380859 C725.09510957 670.27525815 728.4884319 700.46092422 720.75073242 730.10693359 C716.62573316 743.56670627 710.11328363 756.70764683 700.74682617 767.29052734 C700.0481543 768.10779297 699.34948242 768.92505859 698.62963867 769.76708984 C686.4436631 783.72403765 672.20635057 793.93496825 654.74682617 800.29052734 C653.81225586 800.65791016 652.87768555 801.02529297 651.91479492 801.40380859 C640.8004846 805.67854333 630.50443757 806.66806578 618.62182617 806.60302734 C617.59052582 806.60029312 617.59052582 806.60029312 616.53839111 806.59750366 C601.10028724 806.52848922 587.98677735 804.62341541 573.74682617 798.29052734 C572.76327148 797.85998047 571.7797168 797.42943359 570.76635742 796.98583984 C544.3992474 784.65564572 525.50644477 762.54377672 515.34448242 735.56787109 C505.81911572 708.75222366 507.07656397 678.95025061 519.05932617 653.16552734 C524.65445026 641.77806351 532.08686627 632.50765378 540.74682617 623.29052734 C541.26245117 622.69884766 541.77807617 622.10716797 542.30932617 621.49755859 C550.41010182 612.61623946 561.56825664 606.02423815 572.30932617 600.85302734 C572.93178223 600.5476001 573.55423828 600.24217285 574.19555664 599.92749023 C581.24440126 596.70263936 588.00383328 595.35532545 595.74682617 593.29052734 C485.19682617 593.29052734 374.64682617 593.29052734 260.74682617 593.29052734 C266.68682617 594.94052734 272.62682617 596.59052734 278.74682617 598.29052734 C307.1817294 610.03537868 328.75142305 630.82797534 340.74682617 659.29052734 C342.35120758 663.57378412 343.61491261 667.86130036 344.74682617 672.29052734 C345.04459961 673.29341797 345.34237305 674.29630859 345.64916992 675.32958984 C352.50899602 701.31473757 347.04899649 730.67433023 333.89916992 753.73193359 C317.8091786 780.8350833 292.72883472 797.24236145 262.74682617 805.29052734 C258.55371236 806.30598635 254.45942634 806.48280376 250.16479492 806.52880859 C249.43295486 806.53688034 248.70111481 806.54495209 247.94709778 806.55326843 C246.39639618 806.56706502 244.84566479 806.57780686 243.29492188 806.58569336 C241.74079201 806.59710542 240.18669788 806.61738193 238.6328125 806.6472168 C208.84288829 807.21758758 183.65002029 794.40333351 162.18432617 774.10302734 C152.00951666 763.58300108 145.42092107 751.65355744 139.74682617 738.29052734 C139.32530273 737.33662109 138.9037793 736.38271484 138.46948242 735.39990234 C128.56615494 711.03397964 130.58383659 681.77109938 140.1953125 657.75219727 C145.38335325 645.59790343 153.10012399 635.21650989 161.74682617 625.29052734 C162.33592773 624.60474609 162.9250293 623.91896484 163.53198242 623.21240234 C178.06745219 607.49492734 198.4760207 598.64432307 218.74682617 593.29052734 C217.75875977 593.27070801 216.77069336 593.25088867 215.75268555 593.23046875 C212.05485364 593.15387129 208.35738775 593.06524172 204.65991211 592.97314453 C203.06558507 592.93507683 201.47117862 592.90018697 199.87670898 592.86865234 C197.57271108 592.82251471 195.26924951 592.7646067 192.96557617 592.70458984 C192.26315796 592.69303864 191.56073975 592.68148743 190.83703613 592.66958618 C181.64178684 592.40093981 173.85496787 590.01815284 167.01635742 583.68896484 C159.9201279 576.01452403 158.79269812 566.18211589 157.04476929 556.25482178 C156.60826857 553.77603691 156.16261075 551.29903889 155.71484375 548.82226562 C155.06254306 545.20989246 154.41387335 541.59689444 153.76782227 537.98339844 C152.0173183 528.20580301 150.22567834 518.43570584 148.43432617 508.66552734 C148.24764374 507.64561707 148.0609613 506.62570679 147.86862183 505.57489014 C144.69631194 488.25538987 141.39257383 470.96307747 138.04501343 453.67669678 C135.01286788 438.00966766 132.08993171 422.3271725 129.26705933 406.6211853 C126.54416257 391.48774803 123.67128583 376.3862253 120.74682617 361.29052734 C117.47845241 344.41958744 114.30707256 327.53613453 111.26733398 310.62255859 C108.54433785 295.4886653 105.67137452 280.38668313 102.74682617 265.29052734 C99.82249742 250.19550513 96.95011514 235.09466094 94.22796631 219.96179199 C93.08849723 213.63551981 91.93492557 207.31179894 90.78295898 200.98779297 C90.06949474 197.07062112 89.36145777 193.15250895 88.65600586 189.23388672 C83.04435394 158.15933374 76.12044547 127.6012213 68.21072388 97.03222656 C65.88784964 87.99259411 63.7648643 78.91226594 61.71234131 69.80770874 C60.53103441 64.58395033 59.28952068 59.41985063 57.74682617 54.29052734 C56.52986305 54.28172798 56.52986305 54.28172798 55.28831482 54.27275085 C47.62317929 54.21472304 39.95836508 54.14258909 32.29351711 54.05481243 C28.35341394 54.01018309 24.41341238 53.97091096 20.47314453 53.9440918 C16.66687723 53.91798407 12.86100257 53.8775299 9.05497932 53.82734108 C7.60665859 53.81072261 6.15827001 53.79917716 4.70986748 53.79291344 C-6.05587844 53.74166659 -13.28672897 52.87773828 -21.38598633 45.28271484 C-26.74830383 39.56141374 -28.5760715 34.74743815 -28.87817383 26.85302734 C-28.56443498 18.81648612 -26.95071087 12.87439688 -21.09301758 7.19677734 C-14.14832884 1.53900088 -8.81244153 -0.00921129 0 0 Z " fill="#D0D6DF" transform="translate(138.253173828125,163.70947265625)"/>
<path d="M0 0 C0.93205224 -0.00297112 1.86410448 -0.00594224 2.82440072 -0.0090034 C5.96109324 -0.01770493 9.09774765 -0.01919989 12.23445129 -0.02069092 C14.47804344 -0.02531811 16.72163479 -0.03034263 18.96522522 -0.03573608 C25.07076161 -0.0488727 31.176287 -0.05530765 37.28183532 -0.05974674 C41.09527405 -0.06267578 44.90870977 -0.06678029 48.72214699 -0.07125092 C59.28306929 -0.08336203 69.84398895 -0.093743 80.40491772 -0.09712601 C81.08088283 -0.09734557 81.75684795 -0.09756514 82.45329686 -0.09779136 C83.13087197 -0.09800964 83.80844709 -0.09822791 84.50655478 -0.09845281 C85.87955805 -0.09889627 87.25256131 -0.09934283 88.62556458 -0.09979248 C89.30662037 -0.10001391 89.98767616 -0.10023534 90.68937001 -0.10046348 C101.71893273 -0.10440943 112.74842929 -0.12185682 123.77796646 -0.145152 C135.10534939 -0.16888281 146.43268798 -0.18107085 157.76010019 -0.18249393 C164.11854986 -0.18354244 170.47690628 -0.18946003 176.83533287 -0.20731354 C182.8180822 -0.2237848 188.80066809 -0.2259542 194.78343201 -0.21717453 C196.97799428 -0.21640362 199.17256531 -0.22075392 201.36710548 -0.23063278 C204.36618808 -0.24334024 207.36469081 -0.23748169 210.36376953 -0.22705078 C211.66228663 -0.23913539 211.66228663 -0.23913539 212.98703641 -0.25146413 C221.0389257 -0.1861004 227.45582782 1.94981757 233.46028137 7.46075439 C239.63869634 14.20369459 240.31447424 21.14777773 240.20637512 29.95294189 C239.70400412 37.68755965 235.45564094 42.98665 229.99934387 48.14044189 C225.31085369 51.54669364 220.76268002 53.25774701 214.98994255 53.27745628 C213.80115055 53.2850681 213.80115055 53.2850681 212.58834255 53.29283369 C211.72356985 53.29333144 210.85879715 53.2938292 209.96781921 53.29434204 C209.04449079 53.29872429 208.12116236 53.30310655 207.16985428 53.3076216 C204.06858182 53.32100136 200.96733777 53.32718664 197.86604309 53.33331299 C195.64525219 53.34121461 193.42446258 53.3494836 191.20367432 53.35809326 C183.9038058 53.38430683 176.60393156 53.39962047 169.30403137 53.41387939 C166.79065573 53.41923939 164.27728013 53.4246169 161.76390457 53.43001175 C151.30846384 53.45163968 140.85302323 53.4705272 130.39756584 53.48163414 C127.68572358 53.48456366 124.97388135 53.48752535 122.26203918 53.49053955 C121.58805474 53.4912856 120.9140703 53.49203165 120.21966209 53.49280031 C109.3078623 53.50544694 98.39622572 53.53866247 87.48450218 53.58034138 C76.27234739 53.62281548 65.06027278 53.64592819 53.8480283 53.6515547 C47.55652025 53.65520696 41.26528892 53.66721553 34.97385788 53.69965744 C29.05256894 53.72975305 23.13172396 53.73604422 17.21037483 53.72427368 C15.04082776 53.72405308 12.87125999 53.73234733 10.70178413 53.74992752 C-11.95277785 53.92346818 -11.95277785 53.92346818 -20.11233711 46.1212368 C-26.75886772 39.13806613 -28.51687551 33.09841641 -28.28581238 23.55450439 C-27.68441365 16.35419633 -25.1649492 11.30473497 -20.00065613 6.14044189 C-13.30407785 1.29164745 -8.27641189 -0.00817872 0 0 Z " fill="#1E1E2F" transform="translate(461.0006561279297,486.85955810546875)"/>
<path d="M0 0 C12.03314366 8.4886376 20.76374332 20.14415521 23.9375 34.6875 C24.3608883 38.09701139 24.46326356 41.44136091 24.4375 44.875 C24.43105469 45.78556152 24.42460937 46.69612305 24.41796875 47.63427734 C24.06212482 60.94330864 19.64215782 71.55996542 10.9375 81.6875 C10.08671875 82.68716797 10.08671875 82.68716797 9.21875 83.70703125 C0.56589277 93.07415736 -12.49039871 99.0850457 -25.1875 99.80859375 C-41.46783384 100.25212849 -54.93117961 95.67126306 -67.0625 84.6875 C-77.43937754 74.84441246 -82.93767521 61.26853187 -83.46484375 47.10986328 C-83.70627989 30.90346266 -77.8053726 17.89214257 -66.734375 6.078125 C-47.91012568 -10.76462439 -21.47798153 -12.97008303 0 0 Z " fill="#1E1E2F" transform="translate(408.0625,817.3125)"/>
<path d="M0 0 C0.92425781 0.33 1.84851563 0.66 2.80078125 1 C18.20557362 6.950517 28.74244721 16.4725042 35.58984375 31.5234375 C40.75302383 44.25260721 40.85885865 59.57223455 35.66015625 72.2734375 C28.41163729 87.99845982 17.4529871 97.55019291 1.5 103.9375 C-13.35771814 108.44787872 -28.40409262 106.11777767 -41.9765625 98.921875 C-55.54579612 90.29647068 -63.18130917 78.48617393 -67.53271484 63.11865234 C-70.57501897 49.32496625 -67.86903888 35.1910881 -60.75 23.25 C-52.06118664 10.47341158 -39.43578803 1.41570711 -24.14453125 -1.5546875 C-16.08321466 -2.6962901 -7.71712124 -2.77990108 0 0 Z " fill="#1E1E2F" transform="translate(770,811)"/>
</svg>
