<?xml version="1.0" encoding="UTF-8"?>
<svg version="1.1" xmlns="http://www.w3.org/2000/svg" width="1080" height="1080">
<path d="M0 0 C356.4 0 712.8 0 1080 0 C1080 356.4 1080 712.8 1080 1080 C723.6 1080 367.2 1080 0 1080 C0 723.6 0 367.2 0 0 Z " fill="#1E1E2F" transform="translate(0,0)"/>
<path d="M0 0 C1.09328865 -0.0098568 1.09328865 -0.0098568 2.20866394 -0.01991272 C4.62128812 -0.03962494 7.03385003 -0.05130531 9.4465332 -0.0612793 C10.27227152 -0.06535482 11.09800983 -0.06943035 11.94877052 -0.07362938 C16.32163873 -0.09448395 20.69447564 -0.1087868 25.06738281 -0.11816406 C29.57204278 -0.12921111 34.07620642 -0.16359274 38.58069134 -0.20333576 C42.05439639 -0.22955391 45.52798427 -0.23786062 49.00177956 -0.24144554 C50.66148025 -0.24630019 52.3211761 -0.25788209 53.98077965 -0.27648354 C71.9515463 -0.46534317 71.9515463 -0.46534317 79.62231445 6.86450195 C84.86374967 14.80153243 86.33957613 24.86637164 88.6027832 33.9855957 C88.9569787 35.4028973 89.31141919 36.8201377 89.66609192 38.23731995 C90.40364256 41.18761164 91.13878228 44.13848979 91.87207031 47.08984375 C92.81291041 50.87604155 93.75903376 54.66089514 94.70682812 58.44535732 C95.43693947 61.36246856 96.16470942 64.28015979 96.89171791 67.19804573 C97.2399655 68.59488648 97.5888485 69.99156897 97.93837547 71.38809013 C98.42413 73.33073867 98.90648637 75.27423596 99.38867188 77.21777344 C99.66386154 78.3231395 99.93905121 79.42850555 100.22257996 80.56736755 C100.80981445 83.17700195 100.80981445 83.17700195 100.80981445 85.17700195 C225.87981445 85.17700195 350.94981445 85.17700195 479.80981445 85.17700195 C482.77981445 93.75700195 485.74981445 102.33700195 488.80981445 111.17700195 C493.92835835 121.84063508 499.2561744 131.09464903 506.80981445 140.17700195 C507.5677832 141.09868164 508.32575195 142.02036133 509.10668945 142.9699707 C532.95126555 170.59383419 565.51246778 181.42144922 600.9206543 184.04101562 C601.54407715 184.08589111 602.1675 184.1307666 602.80981445 184.17700195 C602.15672784 190.84912202 601.10222046 197.34417213 599.8059082 203.91918945 C599.60719116 204.94325897 599.40847412 205.96732849 599.20373535 207.02243042 C598.77686633 209.22101248 598.3484664 211.41929777 597.91867065 213.61730957 C596.77029799 219.49244237 595.63428935 225.36996715 594.49731445 231.24731445 C594.15264381 233.02706665 594.15264381 233.02706665 593.80101013 234.84277344 C591.73458175 245.52862086 589.72753506 256.22488666 587.74731445 266.92700195 C587.42425026 268.67138954 587.10117076 270.41577429 586.77807617 272.16015625 C586.28974731 274.79697002 585.80146807 277.43379287 585.31344604 280.07066345 C583.35020418 290.67181704 581.36108599 301.26811364 579.37231445 311.86450195 C578.99332175 313.88435777 578.61433413 315.90421454 578.23535156 317.92407227 C577.47399609 321.98154906 576.71249695 326.03899887 575.95092773 330.09643555 C574.25599554 339.1272037 572.56303736 348.15834195 570.86993408 357.18945312 C570.31203964 360.16513331 569.7540573 363.140797 569.19604492 366.11645508 C567.46142983 375.36662837 565.72723105 384.61687914 563.99447632 393.86740112 C563.18910425 398.16683902 562.38350045 402.46623348 561.57788086 406.765625 C561.19934809 408.78611131 560.82092484 410.80661814 560.44262695 412.82714844 C560.26473633 413.77726807 560.0868457 414.7273877 559.90356445 415.70629883 C559.72886627 416.63991241 559.55416809 417.573526 559.37417603 418.53543091 C559.02962255 420.3714159 558.68344005 422.20709601 558.33554077 424.04244995 C557.45835096 428.67418972 556.60771003 433.3083862 555.80053711 437.95288086 C555.63225906 438.89565384 555.46398102 439.83842682 555.29060364 440.80976868 C554.97387579 442.58583699 554.66637241 444.3635883 554.3704071 446.14323425 C553.11093769 453.10215153 551.06194243 458.87368925 546.05981445 463.98950195 C537.91164477 469.47384693 530.40388512 469.6872092 520.80981445 469.86450195 C519.55813477 469.89866211 518.30645508 469.93282227 517.0168457 469.96801758 C513.94792489 470.05001165 510.87927239 470.11932215 507.80981445 470.17700195 C508.88618164 470.52891602 509.96254883 470.88083008 511.0715332 471.2434082 C536.05725465 479.60359496 554.62372611 493.54712507 566.80981445 517.17700195 C575.87121326 536.56208398 578.42266099 559.79328857 571.07739258 580.21313477 C561.95427463 603.69914704 547.21530572 621.90318907 524.08325195 632.4152832 C504.24744428 640.85167444 481.24373021 642.77833321 460.80981445 635.17700195 C437.83419735 625.67741522 420.66828307 609.74379374 410.43481445 587.11450195 C406.02741861 575.99807023 404.55847126 566.5077535 404.49731445 554.61450195 C404.4916748 553.57382568 404.48603516 552.53314941 404.48022461 551.4609375 C404.6920381 528.66585649 413.32867661 509.83788435 428.80981445 493.17700195 C440.95549512 481.67931245 454.81153372 474.74793931 470.80981445 470.17700195 C384.01981445 470.17700195 297.22981445 470.17700195 207.80981445 470.17700195 C213.41981445 471.82700195 219.02981445 473.47700195 224.80981445 475.17700195 C233.4191273 479.28775494 240.70992618 483.82873052 247.80981445 490.17700195 C248.64254883 490.91563477 249.4752832 491.65426758 250.33325195 492.4152832 C265.72238768 506.88107079 275.1988325 526.98384185 276.1262207 548.09106445 C276.79959562 573.34071071 269.60906169 595.21878425 252.04418945 613.90356445 C251.3068457 614.65379883 250.56950195 615.4040332 249.80981445 616.17700195 C249.1962207 616.80348633 248.58262695 617.4299707 247.95043945 618.07543945 C230.97417123 634.10858166 207.82049096 640.01117891 185.09887695 639.4621582 C162.94960767 638.52055817 142.28726774 627.4438885 127.18481445 611.48950195 C112.93571653 595.05017167 105.63861203 574.91259535 105.62231445 553.30200195 C105.61006836 552.45508789 105.59782227 551.60817383 105.58520508 550.7355957 C105.5719038 544.94510776 106.35341316 539.76968879 107.80981445 534.17700195 C108.07020508 533.03875977 108.3305957 531.90051758 108.59887695 530.7277832 C113.87497773 510.28905636 127.71529998 492.0723638 145.80981445 481.17700195 C148.40614111 479.70208681 151.03259342 478.29864484 153.68481445 476.92700195 C154.30815674 476.59756592 154.93149902 476.26812988 155.57373047 475.92871094 C161.39698749 473.02635867 167.48299995 471.59528598 173.80981445 470.17700195 C172.50947266 470.1629834 172.50947266 470.1629834 171.18286133 470.14868164 C167.93205705 470.10437618 164.68215818 470.04263243 161.43188477 469.96948242 C160.03161484 469.94145125 158.63119194 469.92014879 157.23071289 469.90600586 C147.98342505 469.80706911 140.81464567 469.56276868 133.56762695 463.2121582 C133.02879883 462.56118164 132.4899707 461.91020508 131.93481445 461.23950195 C131.38051758 460.59110352 130.8262207 459.94270508 130.25512695 459.2746582 C127.43344574 455.17940736 126.45986643 450.93438312 125.65356445 446.0793457 C125.44103027 444.83040527 125.22849609 443.58146484 125.00952148 442.29467773 C124.89658752 441.61890686 124.78365356 440.94313599 124.66729736 440.24688721 C122.00787648 424.38344392 119.00034076 408.59116806 115.93481445 392.80200195 C112.79497317 376.61040069 109.72651747 360.4103034 106.80981445 344.17700195 C103.94384129 328.23783945 100.94654232 312.32730083 97.87231445 296.42700195 C94.61954191 279.60179191 91.39737535 262.77177081 88.24731445 245.92700195 C88.06355255 244.94445435 87.87979065 243.96190674 87.69046021 242.94958496 C86.76579704 238.00404495 85.84204215 233.05833584 84.91870117 228.11254883 C83.24156249 219.13156275 81.55625323 210.15210857 79.87167358 201.17251587 C79.31345961 198.19643587 78.75555172 195.22029865 78.19775391 192.24414062 C76.45702707 182.9568125 74.71498071 173.66973695 72.96868896 164.38345337 C72.15296867 160.04527533 71.33793455 155.7069685 70.52294922 151.36865234 C70.1380363 149.32073666 69.75279534 147.2728826 69.3671875 145.22509766 C68.8289744 142.36677871 68.29196799 139.50823512 67.75512695 136.6496582 C67.49889557 135.29162582 67.49889557 135.29162582 67.23748779 133.90615845 C66.47281002 129.83012869 65.72913588 125.75422765 65.06274414 121.66088867 C63.63255561 112.92056412 61.63667083 104.52794578 59.18334961 96.01928711 C56.83121231 87.8319708 54.80247108 79.55718707 52.73291016 71.29492188 C51.98643365 68.32115568 51.23116313 65.3497012 50.47583008 62.37817383 C49.99677805 60.47140747 49.51824256 58.56451125 49.0402832 56.6574707 C48.8153569 55.77729782 48.5904306 54.89712494 48.35868835 53.99028015 C48.15459854 53.16784317 47.95050873 52.34540619 47.74023438 51.49804688 C47.55990158 50.78178635 47.37956879 50.06552582 47.19377136 49.32756042 C46.76193977 46.90885388 46.7458733 44.62896295 46.80981445 42.17700195 C45.84047974 42.19032562 45.84047974 42.19032562 44.8515625 42.20391846 C38.10287352 42.29267021 31.35435136 42.35285173 24.60522461 42.39672852 C22.08920554 42.41679711 19.57323284 42.44405825 17.05737305 42.47875977 C13.43307017 42.52748507 9.80938604 42.55001917 6.18481445 42.56762695 C4.50778442 42.59859467 4.50778442 42.59859467 2.796875 42.63018799 C-4.87144917 42.63237261 -10.24140976 41.58453627 -16.21362305 36.4309082 C-16.65963867 35.87274414 -17.1056543 35.31458008 -17.56518555 34.73950195 C-18.02666992 34.18391602 -18.4881543 33.62833008 -18.96362305 33.0559082 C-22.65675478 27.39859495 -23.05545987 21.75669211 -22.19018555 15.17700195 C-19.88974697 8.50162216 -16.17427064 4.72312645 -10.19018555 1.17700195 C-6.63028957 -0.00963004 -3.7588596 0.02804659 0 0 Z " fill="#D0D6DF" transform="translate(221.190185546875,241.822998046875)"/>
<path d="M0 0 C0.74883453 -0.00807175 1.49766907 -0.01614349 2.26919556 -0.02445984 C3.85082749 -0.03822039 5.43248812 -0.04897802 7.01416016 -0.05688477 C8.59628305 -0.0683121 10.17837029 -0.08861414 11.76025391 -0.1184082 C43.86013832 -0.72057539 73.53442217 12.69064354 96.72045898 34.52148438 C118.56122761 55.79224753 132.57601962 85.7819804 133.12890625 116.40234375 C133.48848245 148.5107864 124.72583771 177.44647409 104.0390625 202.23828125 C103.2965625 203.13417969 102.5540625 204.03007812 101.7890625 204.953125 C96.4426794 211.14920113 90.58651245 216.34025284 84.0390625 221.23828125 C83.49540039 221.64578613 82.95173828 222.05329102 82.39160156 222.47314453 C69.64646194 231.87820355 55.66980203 237.85114389 40.4765625 242.17578125 C39.7755542 242.37534424 39.0745459 242.57490723 38.35229492 242.78051758 C9.29955046 250.47690423 -24.96006708 244.82152211 -50.90820312 230.13623047 C-82.34665058 211.19769688 -101.34406566 183.24515183 -110.9609375 148.23828125 C-110.9609375 147.57828125 -110.9609375 146.91828125 -110.9609375 146.23828125 C-236.0309375 146.23828125 -361.1009375 146.23828125 -489.9609375 146.23828125 C-489.9609375 145.90828125 -489.9609375 145.57828125 -489.9609375 145.23828125 C-364.8909375 145.23828125 -239.8209375 145.23828125 -110.9609375 145.23828125 C-111.6209375 141.27828125 -112.2809375 137.31828125 -112.9609375 133.23828125 C-113.16393573 129.30749743 -113.29575834 125.47633739 -113.2734375 121.55078125 C-113.26852295 120.51058838 -113.2636084 119.47039551 -113.25854492 118.39868164 C-112.75863423 85.13026634 -97.30129069 54.71283814 -73.6796875 31.7109375 C-57.69196298 17.1703777 -39.64411069 8.2070025 -18.94140625 2.25390625 C-18.34223389 2.08149414 -17.74306152 1.90908203 -17.12573242 1.73144531 C-11.44944462 0.4383246 -5.80337318 0.06141734 0 0 Z " fill="#564F6E" transform="translate(811.9609375,180.76171875)"/>
<path d="M0 0 C0.72958347 -0.00453111 1.45916694 -0.00906223 2.210859 -0.01373065 C4.65041832 -0.02636949 7.08975425 -0.02475462 9.52934265 -0.02310181 C11.2806273 -0.02908741 13.03190932 -0.03589303 14.78318787 -0.04345703 C19.53742366 -0.06112165 24.29158746 -0.06581263 29.0458529 -0.0670886 C32.01740469 -0.06851057 34.98893821 -0.07278105 37.96048546 -0.07808304 C48.33094316 -0.09658529 58.70134946 -0.10475346 69.07182312 -0.10317993 C78.73247081 -0.10197869 88.39289502 -0.12307723 98.05348617 -0.15466726 C106.35259243 -0.18083634 114.65162574 -0.19154695 122.95077294 -0.19026911 C127.90524316 -0.18975964 132.8595148 -0.19543478 137.81394386 -0.21662521 C142.47534565 -0.23601804 147.13635964 -0.23612492 151.79777527 -0.22159195 C153.50534826 -0.219504 155.21294558 -0.22420391 156.92047691 -0.23631287 C166.99302214 -0.30309672 174.26498323 -0.14424762 182.4070282 6.51742554 C186.99657901 12.12687652 189.4984134 17.29987399 189.16874695 24.67758179 C187.90146134 31.0914013 184.18942394 36.46498145 178.9695282 40.32992554 C174.28641783 43.0691033 170.75698757 43.41600676 165.4786377 43.41459656 C164.74259597 43.41827325 164.00655424 43.42194993 163.24820822 43.42573804 C160.77485539 43.43677592 158.30154456 43.4406189 155.82817078 43.44442749 C154.0574785 43.4506921 152.28678754 43.4573389 150.51609802 43.46434021 C144.69459448 43.48538458 138.87309067 43.49574344 133.05155945 43.50570679 C131.04735996 43.5097543 129.04316061 43.51387122 127.03896141 43.51805687 C117.62246288 43.53710994 108.2059722 43.55134032 98.7894581 43.55966884 C87.92140882 43.56943992 77.05356329 43.59575562 66.1855858 43.63616973 C57.78461879 43.66633722 49.38371016 43.68113835 40.98269004 43.68444985 C35.96557974 43.68679977 30.94868707 43.69575255 25.9316349 43.72091103 C21.20954083 43.74420754 16.48780744 43.7484186 11.76567078 43.73814964 C10.03551725 43.73765454 8.30534587 43.74396734 6.57524681 43.75770569 C-10.98694578 43.88932444 -10.98694578 43.88932444 -18.3664093 37.52133179 C-18.81242493 36.96316772 -19.25844055 36.40500366 -19.7179718 35.82992554 C-20.17945618 35.2743396 -20.64094055 34.71875366 -21.1164093 34.14633179 C-24.83181369 28.45490022 -25.0672752 22.87901554 -24.3429718 16.26742554 C-22.53353754 9.57939002 -18.1985379 5.69135059 -12.3429718 2.26742554 C-8.13565753 0.21439527 -4.65887437 0.01196552 0 0 Z " fill="#1F1F30" transform="translate(479.3429718017578,496.7325744628906)"/>
<path d="M0 0 C11.66153845 6.09420759 17.7358515 15.73324134 22.04296875 27.9609375 C27.7120611 48.66776309 24.4704654 74.96292234 15 94 C6.57040548 107.98797344 -4.4827612 114.53531238 -20 118.8125 C-30.68880055 121.10573357 -42.26627638 120.78895394 -53 119 C-53 112.07 -53 105.14 -53 98 C-51.02 98.33 -49.04 98.66 -47 99 C-38.55540139 99.37628781 -30.13041916 99.60694803 -22 97 C-21.30519531 96.79375 -20.61039063 96.5875 -19.89453125 96.375 C-12.45794941 93.91939324 -8.46130976 90.30361428 -4.6875 83.5 C-1.62790187 77.07724048 -1.0227413 71.04980366 -1 64 C-1.5775 64.86625 -2.155 65.7325 -2.75 66.625 C-7.84686513 72.55487079 -14.71054529 75.86361968 -22.46875 76.515625 C-30.61584798 76.85367534 -38.00029701 76.57092674 -45 72 C-45.928125 71.49146484 -45.928125 71.49146484 -46.875 70.97265625 C-54.15473467 66.56402383 -58.40435467 58.13686223 -60.52734375 50.08984375 C-62.55720371 36.82026335 -62.13561792 23.02038259 -54.25 11.6875 C-47.80289052 3.95418414 -41.66202591 -0.0967095 -32 -3 C-21.8783063 -6.3738979 -9.50688832 -4.12731845 0 0 Z " fill="#CFD4DE" transform="translate(799,243)"/>
<path d="M0 0 C9.04084949 6.78840417 15.81064427 15.93113039 17.94140625 27.2578125 C19.22609236 40.60343414 17.73673413 52.23913996 8.9375 62.93359375 C0.17009191 72.27726341 -9.11133806 77.73078809 -22.11914062 78.18969727 C-35.40522686 78.29285913 -45.77123104 74.7921733 -55.53515625 65.26953125 C-64.58627687 54.68568967 -67.47857749 44.3904344 -66.7265625 30.70703125 C-65.71588831 19.54071158 -60.39033545 10.34163969 -52.28515625 2.71484375 C-36.90202522 -9.35680411 -16.50041295 -10.9735756 0 0 Z " fill="#1F1F30" transform="translate(734.7265625,760.29296875)"/>
<path d="M0 0 C10.62306225 9.10548192 15.14984406 19.99844059 16.5078125 33.578125 C16.22212258 42.94875446 12.73211736 52.38670356 7.1328125 59.828125 C6.5759375 60.67375 6.0190625 61.519375 5.4453125 62.390625 C-2.9028404 71.1900294 -13.24859698 75.83522381 -25.31420898 76.24780273 C-38.95025971 76.35627301 -48.13782802 72.34601044 -58.1171875 63.078125 C-66.77105451 54.06224363 -69.32850619 42.87452968 -69.29882812 30.74609375 C-69.00639922 19.16213591 -63.98052018 9.98507775 -55.8671875 1.828125 C-53.00625244 -0.46547209 -50.0552309 -2.3681136 -46.8671875 -4.171875 C-45.9184375 -4.749375 -44.9696875 -5.326875 -43.9921875 -5.921875 C-29.12438647 -11.86899541 -12.93802056 -9.18182104 0 0 Z " fill="#1F1F30" transform="translate(438.8671875,762.171875)"/>
<path d="M0 0 C5.94 0 11.88 0 18 0 C18 10.56 18 21.12 18 32 C28.56 32 39.12 32 50 32 C50 38.27 50 44.54 50 51 C39.44 51 28.88 51 18 51 C18 61.23 18 71.46 18 82 C12.06 82 6.12 82 0 82 C0 71.77 0 61.54 0 51 C-10.56 51 -21.12 51 -32 51 C-32 44.73 -32 38.46 -32 32 C-21.44 32 -10.88 32 0 32 C0 21.44 0 10.88 0 0 Z " fill="#CDD2DC" transform="translate(868,260)"/>
<path d="M0 0 C6.1464242 2.79382918 9.52502517 7.83933965 12.3125 13.8125 C13.5736986 19.65987532 14.05378774 24.85189421 11.375 30.3125 C7.24520099 34.98569362 3.57571109 38.61826868 -2.890625 39.30859375 C-13.08160912 39.69964314 -13.08160912 39.69964314 -17.1875 36.375 C-20.93419572 32.78955447 -21.86355089 28.45651488 -22.3359375 23.4140625 C-22.4795902 9.47975028 -22.4795902 9.47975028 -18 4 C-12.89375815 -1.10624185 -6.81106097 -0.90876604 0 0 Z " fill="#575070" transform="translate(785,260)"/>
</svg>
