<?xml version="1.0" encoding="UTF-8"?>
<svg version="1.1" xmlns="http://www.w3.org/2000/svg" width="1080" height="1080">
<path d="M0 0 C356.4 0 712.8 0 1080 0 C1080 356.4 1080 712.8 1080 1080 C723.6 1080 367.2 1080 0 1080 C0 723.6 0 367.2 0 0 Z " fill="#1E1E2F" transform="translate(0,0)"/>
<path d="M0 0 C1.67191217 -0.00083009 3.34382425 -0.00329473 5.01573181 -0.00730896 C8.50658965 -0.01015595 11.99680197 0.00442719 15.48754883 0.03198242 C19.94509567 0.06609033 24.40149142 0.06002793 28.85909367 0.04131985 C32.30713877 0.03071457 35.75491942 0.03971907 39.20293999 0.05470467 C40.84585216 0.05985932 42.48879225 0.05943794 44.13170052 0.05315971 C61.94425941 0.01062566 61.94425941 0.01062566 69.58984375 7.31640625 C74.83127897 15.25343673 76.30710542 25.31827593 78.5703125 34.4375 C78.924508 35.8548016 79.27894849 37.27204199 79.63362122 38.68922424 C80.37117185 41.63951593 81.10631157 44.59039408 81.83959961 47.54174805 C82.78043971 51.32794585 83.72656306 55.11279943 84.67435741 58.89726162 C85.40446877 61.81437286 86.13223872 64.73206409 86.85924721 67.64995003 C87.20749479 69.04679078 87.5563778 70.44347327 87.90590477 71.83999443 C88.39165929 73.78264297 88.87401567 75.72614026 89.35620117 77.66967773 C89.63139084 78.77504379 89.90658051 79.88040985 90.19010925 81.01927185 C90.77734375 83.62890625 90.77734375 83.62890625 90.77734375 85.62890625 C215.84734375 85.62890625 340.91734375 85.62890625 469.77734375 85.62890625 C472.74734375 94.20890625 475.71734375 102.78890625 478.77734375 111.62890625 C483.89588765 122.29253938 489.22370369 131.54655332 496.77734375 140.62890625 C497.5353125 141.55058594 498.29328125 142.47226562 499.07421875 143.421875 C522.91879485 171.04573849 555.47999708 181.87335352 590.88818359 184.49291992 C591.51160645 184.53779541 592.1350293 184.5826709 592.77734375 184.62890625 C592.12425713 191.30102632 591.06974976 197.79607642 589.7734375 204.37109375 C589.57472046 205.39516327 589.37600342 206.41923279 589.17126465 207.47433472 C588.74439563 209.67291678 588.3159957 211.87120207 587.88619995 214.06921387 C586.73782729 219.94434666 585.60181865 225.82187145 584.46484375 231.69921875 C584.12017311 233.47897095 584.12017311 233.47897095 583.76853943 235.29467773 C581.70211105 245.98052516 579.69506436 256.67679096 577.71484375 267.37890625 C577.39177956 269.12329384 577.06870006 270.86767859 576.74560547 272.61206055 C576.2572766 275.24887432 575.76899737 277.88569717 575.28097534 280.52256775 C573.31773347 291.12372133 571.32861529 301.72001794 569.33984375 312.31640625 C568.96085105 314.33626207 568.58186342 316.35611884 568.20288086 318.37597656 C567.44152538 322.43345336 566.68002625 326.49090316 565.91845703 330.54833984 C564.22352484 339.579108 562.53056666 348.61024624 560.83746338 357.64135742 C560.27956894 360.61703761 559.7215866 363.5927013 559.16357422 366.56835938 C557.42895913 375.81853267 555.69476034 385.06878344 553.96200562 394.31930542 C553.15663355 398.61874332 552.35102975 402.91813778 551.54541016 407.2175293 C551.16687739 409.23801561 550.78845414 411.25852244 550.41015625 413.27905273 C550.23226562 414.22917236 550.054375 415.17929199 549.87109375 416.15820312 C549.69639557 417.09181671 549.52169739 418.0254303 549.34170532 418.98733521 C548.99715185 420.8233202 548.65096935 422.65900031 548.30307007 424.49435425 C547.42588026 429.12609401 546.57523932 433.76029049 545.76806641 438.40478516 C545.59978836 439.34755814 545.43151031 440.29033112 545.25813293 441.26167297 C544.94140509 443.03774129 544.63390171 444.81549259 544.3379364 446.59513855 C543.07846699 453.55405582 541.02947173 459.32559355 536.02734375 464.44140625 C527.87917407 469.92575123 520.37141442 470.1391135 510.77734375 470.31640625 C509.52566406 470.35056641 508.27398438 470.38472656 506.984375 470.41992188 C503.91545418 470.50191594 500.84680169 470.57122644 497.77734375 470.62890625 C498.85371094 470.98082031 499.93007813 471.33273437 501.0390625 471.6953125 C526.02478394 480.05549926 544.59125541 493.99902936 556.77734375 517.62890625 C565.83874256 537.01398828 568.39019029 560.24519287 561.04492188 580.66503906 C551.92180392 604.15105134 537.18283502 622.35509337 514.05078125 632.8671875 C494.21497357 641.30357873 471.2112595 643.2302375 450.77734375 635.62890625 C427.80172665 626.12931952 410.63581237 610.19569804 400.40234375 587.56640625 C395.99494791 576.44997452 394.52600056 566.95965779 394.46484375 555.06640625 C394.4592041 554.02572998 394.45356445 552.98505371 394.44775391 551.9128418 C394.5436667 541.59083686 395.755039 531.72922139 399.83984375 522.19140625 C400.14220947 521.47404297 400.4445752 520.75667969 400.75610352 520.01757812 C403.90068635 512.86899377 407.96163093 506.77019855 412.77734375 500.62890625 C413.41414063 499.8090625 414.0509375 498.98921875 414.70703125 498.14453125 C426.50064203 483.9530494 443.3383406 475.61147858 460.77734375 470.62890625 C373.98734375 470.62890625 287.19734375 470.62890625 197.77734375 470.62890625 C203.38734375 472.27890625 208.99734375 473.92890625 214.77734375 475.62890625 C223.3866566 479.73965923 230.67745548 484.28063482 237.77734375 490.62890625 C238.61007812 491.36753906 239.4428125 492.10617187 240.30078125 492.8671875 C255.68991698 507.33297508 265.16636179 527.43574615 266.09375 548.54296875 C266.76712491 573.79261501 259.57659099 595.67068855 242.01171875 614.35546875 C241.274375 615.10570312 240.53703125 615.8559375 239.77734375 616.62890625 C239.16375 617.25539063 238.55015625 617.881875 237.91796875 618.52734375 C220.94170053 634.56048596 197.78802026 640.4630832 175.06640625 639.9140625 C152.91713696 638.97246247 132.25479703 627.89579279 117.15234375 611.94140625 C102.90324583 595.50207596 95.60614133 575.36449964 95.58984375 553.75390625 C95.57759766 552.90699219 95.56535156 552.06007813 95.55273438 551.1875 C95.53945062 545.40463928 96.284271 540.20874004 97.77734375 534.62890625 C98.0609375 533.53964844 98.34453125 532.45039062 98.63671875 531.328125 C105.24664062 508.97615237 119.01175047 490.81644333 139.54296875 479.52734375 C140.90986316 478.80568334 142.27967179 478.08951568 143.65234375 477.37890625 C144.2757666 477.04938965 144.89918945 476.71987305 145.54150391 476.38037109 C151.36480888 473.47836721 157.45061441 472.04717119 163.77734375 470.62890625 C162.47700195 470.6148877 162.47700195 470.6148877 161.15039062 470.60058594 C157.89958634 470.55628048 154.64968748 470.49453672 151.39941406 470.42138672 C149.99914414 470.39335554 148.59872124 470.37205309 147.19824219 470.35791016 C137.95095435 470.25897341 130.78217497 470.01467298 123.53515625 463.6640625 C122.99632812 463.01308594 122.4575 462.36210938 121.90234375 461.69140625 C121.34804688 461.04300781 120.79375 460.39460938 120.22265625 459.7265625 C117.40097504 455.63131166 116.42739573 451.38628741 115.62109375 446.53125 C115.40855957 445.28230957 115.19602539 444.03336914 114.97705078 442.74658203 C114.86411682 442.07081116 114.75118286 441.39504028 114.63482666 440.6987915 C111.97540578 424.83534822 108.96787005 409.04307235 105.90234375 393.25390625 C102.76250394 377.06231259 99.69358901 360.86228632 96.77734375 344.62890625 C93.69835052 327.49491907 90.4454309 310.39841736 87.1338501 293.30795288 C84.20880724 278.20256378 81.3748643 263.08457944 78.65234375 247.94140625 C76.13809732 233.96014481 73.5225666 220.00419269 70.77734375 206.06640625 C67.99430754 191.93401347 65.28292761 177.79051255 62.65234375 163.62890625 C62.40150528 162.28143311 62.40150528 162.28143311 62.14559937 160.90673828 C60.42972251 151.68422599 58.73795833 142.45847935 57.1171875 133.21875 C56.85511435 131.73630445 56.59291036 130.25388203 56.33056641 128.77148438 C55.85803084 126.10106117 55.39682967 123.42958971 54.94287109 120.75585938 C53.6308519 113.31810887 51.89240202 106.11846059 49.82058716 98.86578369 C47.25322216 89.87545728 44.9720437 80.81570476 42.70043945 71.74682617 C41.95396294 68.77305998 41.19869243 65.8016055 40.44335938 62.83007812 C39.96430735 60.92331177 39.48577186 59.01641554 39.0078125 57.109375 C38.7828862 56.22920212 38.5579599 55.34902924 38.32621765 54.44218445 C38.12212784 53.61974747 37.91803802 52.79731049 37.70776367 51.94995117 C37.52743088 51.23369064 37.34709808 50.51743011 37.16130066 49.77946472 C36.72946907 47.36075818 36.7134026 45.08086724 36.77734375 42.62890625 C35.80800903 42.64222992 35.80800903 42.64222992 34.8190918 42.65582275 C28.07040281 42.7445745 21.32188066 42.80475603 14.57275391 42.84863281 C12.05673484 42.86870141 9.54076214 42.89596255 7.02490234 42.93066406 C3.40059947 42.97938937 -0.22308466 43.00192347 -3.84765625 43.01953125 C-5.52468628 43.05049896 -5.52468628 43.05049896 -7.2355957 43.08209229 C-14.90391988 43.08427691 -20.27388047 42.03644057 -26.24609375 36.8828125 C-26.69210938 36.32464844 -27.138125 35.76648438 -27.59765625 35.19140625 C-28.05914062 34.63582031 -28.520625 34.08023438 -28.99609375 33.5078125 C-32.67879236 27.8664812 -33.19784677 22.19167491 -32.22265625 15.62890625 C-29.77927921 9.06058851 -26.34384439 5.01065088 -20.21180725 1.70373535 C-13.77972997 -0.60908988 -6.75398669 -0.06089276 0 0 Z " fill="#D0D6DF" transform="translate(231.22265625,241.37109375)"/>
<path d="M0 0 C2.40722395 -0.00435609 4.81258292 -0.04074034 7.21948242 -0.07861328 C37.00120509 -0.2956918 66.07885269 13.0952663 87.40112305 33.56591797 C105.84163394 51.77814193 118.09724287 72.85091438 123.2409668 98.37060547 C123.57547852 99.70478516 123.57547852 99.70478516 123.91674805 101.06591797 C126.11893266 110.62369881 125.48917224 120.63000747 125.2409668 130.37060547 C125.21131836 131.59779297 125.18166992 132.82498047 125.15112305 134.08935547 C123.88858696 158.97055439 111.98455111 183.50290364 96.2409668 202.37060547 C95.4984668 203.26650391 94.7559668 204.16240234 93.9909668 205.08544922 C88.6445837 211.28152535 82.78841675 216.47257705 76.2409668 221.37060547 C75.69730469 221.77811035 75.15364258 222.18561523 74.59350586 222.60546875 C61.84836624 232.01052777 47.87170633 237.98346811 32.6784668 242.30810547 C31.9774585 242.50766846 31.2764502 242.70723145 30.55419922 242.9128418 C1.50145476 250.60922845 -32.75816278 244.95384633 -58.70629883 230.26855469 C-90.14474628 211.3300211 -109.14216137 183.37747605 -118.7590332 148.37060547 C-118.7590332 147.71060547 -118.7590332 147.05060547 -118.7590332 146.37060547 C-243.8290332 146.37060547 -368.8990332 146.37060547 -497.7590332 146.37060547 C-497.7590332 146.04060547 -497.7590332 145.71060547 -497.7590332 145.37060547 C-372.6890332 145.37060547 -247.6190332 145.37060547 -118.7590332 145.37060547 C-119.4190332 141.41060547 -120.0790332 137.45060547 -120.7590332 133.37060547 C-120.93768899 129.35873208 -121.04705204 125.43905576 -121.0090332 121.43310547 C-121.00154053 120.381875 -120.99404785 119.33064453 -120.98632812 118.24755859 C-120.52054178 84.62767301 -104.74561562 54.42209806 -80.95825195 31.19873047 C-58.52080174 10.77370397 -30.12398873 -0.00607522 0 0 Z " fill="#564F6E" transform="translate(819.759033203125,180.62939453125)"/>
<path d="M0 0 C0.72958347 -0.00453111 1.45916694 -0.00906223 2.210859 -0.01373065 C4.65041832 -0.02636949 7.08975425 -0.02475462 9.52934265 -0.02310181 C11.2806273 -0.02908741 13.03190932 -0.03589303 14.78318787 -0.04345703 C19.53742366 -0.06112165 24.29158746 -0.06581263 29.0458529 -0.0670886 C32.01740469 -0.06851057 34.98893821 -0.07278105 37.96048546 -0.07808304 C48.33094316 -0.09658529 58.70134946 -0.10475346 69.07182312 -0.10317993 C78.73247081 -0.10197869 88.39289502 -0.12307723 98.05348617 -0.15466726 C106.35259243 -0.18083634 114.65162574 -0.19154695 122.95077294 -0.19026911 C127.90524316 -0.18975964 132.8595148 -0.19543478 137.81394386 -0.21662521 C142.47534565 -0.23601804 147.13635964 -0.23612492 151.79777527 -0.22159195 C153.50534826 -0.219504 155.21294558 -0.22420391 156.92047691 -0.23631287 C166.99302214 -0.30309672 174.26498323 -0.14424762 182.4070282 6.51742554 C186.99657901 12.12687652 189.4984134 17.29987399 189.16874695 24.67758179 C187.90146134 31.0914013 184.18942394 36.46498145 178.9695282 40.32992554 C174.28641783 43.0691033 170.75698757 43.41600676 165.4786377 43.41459656 C164.74259597 43.41827325 164.00655424 43.42194993 163.24820822 43.42573804 C160.77485539 43.43677592 158.30154456 43.4406189 155.82817078 43.44442749 C154.0574785 43.4506921 152.28678754 43.4573389 150.51609802 43.46434021 C144.69459448 43.48538458 138.87309067 43.49574344 133.05155945 43.50570679 C131.04735996 43.5097543 129.04316061 43.51387122 127.03896141 43.51805687 C117.62246288 43.53710994 108.2059722 43.55134032 98.7894581 43.55966884 C87.92140882 43.56943992 77.05356329 43.59575562 66.1855858 43.63616973 C57.78461879 43.66633722 49.38371016 43.68113835 40.98269004 43.68444985 C35.96557974 43.68679977 30.94868707 43.69575255 25.9316349 43.72091103 C21.20954083 43.74420754 16.48780744 43.7484186 11.76567078 43.73814964 C10.03551725 43.73765454 8.30534587 43.74396734 6.57524681 43.75770569 C-10.98694578 43.88932444 -10.98694578 43.88932444 -18.3664093 37.52133179 C-18.81242493 36.96316772 -19.25844055 36.40500366 -19.7179718 35.82992554 C-20.17945618 35.2743396 -20.64094055 34.71875366 -21.1164093 34.14633179 C-24.83181369 28.45490022 -25.0672752 22.87901554 -24.3429718 16.26742554 C-22.53353754 9.57939002 -18.1985379 5.69135059 -12.3429718 2.26742554 C-8.13565753 0.21439527 -4.65887437 0.01196552 0 0 Z " fill="#1F1F30" transform="translate(479.3429718017578,496.7325744628906)"/>
<path d="M0 0 C1.73416184 1.21391329 3.44525659 2.46183664 5.125 3.75 C6.11113281 4.50216797 6.11113281 4.50216797 7.1171875 5.26953125 C15.63749082 12.74846416 19.42345425 23.87264345 20.3984375 34.8203125 C20.7605225 45.71071531 17.7728368 55.48859066 10.7890625 63.9765625 C2.02165441 73.32023216 -7.25977556 78.77375684 -20.26757812 79.23266602 C-33.55366436 79.33582788 -43.91966854 75.83514205 -53.68359375 66.3125 C-62.73471437 55.72865842 -65.62701499 45.43340315 -64.875 31.75 C-63.90334857 21.01481885 -58.95137606 11.83270212 -51.06640625 4.53125 C-36.12899147 -7.61039196 -16.8352634 -10.29078601 0 0 Z " fill="#1F1F30" transform="translate(732.875,759.25)"/>
<path d="M0 0 C0.99 0.721875 1.98 1.44375 3 2.1875 C12.41840822 10.19685502 16.1880155 21.88015502 17.375 33.75 C17.08931008 43.12062946 13.59930486 52.55857856 8 60 C7.443125 60.845625 6.88625 61.69125 6.3125 62.5625 C-2.0356529 71.3619044 -12.38140948 76.00709881 -24.44702148 76.41967773 C-38.08307221 76.52814801 -47.27064052 72.51788544 -57.25 63.25 C-65.90386701 54.23411863 -68.46131869 43.04640468 -68.43164062 30.91796875 C-68.14125874 19.41509936 -63.18378381 10.01733397 -55 2 C-38.54474216 -10.71324585 -17.15550475 -13.16585248 0 0 Z " fill="#1F1F30" transform="translate(438,762)"/>
<path d="M0 0 C0.89976562 -0.020625 1.79953125 -0.04125 2.7265625 -0.0625 C13.24671247 -0.12296063 22.48338905 2.81498227 30.875 9.25 C37.34465066 15.95119606 40.44570261 23.2681149 40.3125 32.5 C40.30420166 33.24652832 40.29590332 33.99305664 40.28735352 34.76220703 C40.09238306 41.18859988 38.83820791 46.50155463 35.875 52.25 C35.43542969 53.10335937 34.99585938 53.95671875 34.54296875 54.8359375 C27.72777286 66.60293395 17.23058937 76.46452775 7.05078125 85.328125 C4.40270894 87.6671763 1.9471336 90.16033275 -0.5234375 92.68359375 C-2.11718455 94.24235611 -3.77066106 95.65689987 -5.5 97.0625 C-8.1566122 98.9792087 -8.1566122 98.9792087 -9.125 101.25 C8.365 101.25 25.855 101.25 43.875 101.25 C43.875 108.18 43.875 115.11 43.875 122.25 C16.155 122.25 -11.565 122.25 -40.125 122.25 C-40.125 103.25 -40.125 103.25 -36.68774414 97.6875 C-35.14276392 96.15873589 -33.54709056 94.6798705 -31.91015625 93.25 C-31.06585556 92.43732666 -30.22155487 91.62465332 -29.35166931 90.78735352 C-26.67191454 88.22594096 -23.93492072 85.73849515 -21.1875 83.25 C-19.38031736 81.55551291 -17.57753697 79.85631797 -15.77929688 78.15234375 C-13.18203921 75.6914575 -10.58353687 73.23269356 -7.96888733 70.7902832 C2.07512997 61.37111479 13.88612057 49.98929093 14.5 35.375 C14.21678826 30.70200627 13.11418043 27.75911213 9.875 24.25 C4.9565747 21.14645216 -0.52398259 21.70237577 -6.125 22.25 C-13.05551925 23.95205399 -18.41977535 27.6159166 -23.99609375 31.95703125 C-25.04990234 32.59705078 -25.04990234 32.59705078 -26.125 33.25 C-30.02433913 31.95022029 -31.15654527 30.01893194 -33.6875 26.8125 C-36.76354744 22.90375212 -36.76354744 22.90375212 -40.125 19.25 C-40.04671307 16.16419023 -39.09186032 15.21806021 -36.859375 13.06640625 C-25.49646112 4.48472914 -14.25520559 0.07963802 0 0 Z " fill="#CFD5DF" transform="translate(821.125,238.75)"/>
</svg>
