<?xml version="1.0" encoding="UTF-8"?>
<svg version="1.1" xmlns="http://www.w3.org/2000/svg" width="1080" height="1080">
<path d="M0 0 C356.4 0 712.8 0 1080 0 C1080 356.4 1080 712.8 1080 1080 C723.6 1080 367.2 1080 0 1080 C0 723.6 0 367.2 0 0 Z " fill="#1E1E2F" transform="translate(0,0)"/>
<path d="M0 0 C1.67191217 -0.00083009 3.34382425 -0.00329473 5.01573181 -0.00730896 C8.50658965 -0.01015595 11.99680197 0.00442719 15.48754883 0.03198242 C19.94509567 0.06609033 24.40149142 0.06002793 28.85909367 0.04131985 C32.30713877 0.03071457 35.75491942 0.03971907 39.20293999 0.05470467 C40.84585216 0.05985932 42.48879225 0.05943794 44.13170052 0.05315971 C61.94425941 0.01062566 61.94425941 0.01062566 69.58984375 7.31640625 C74.83127897 15.25343673 76.30710542 25.31827593 78.5703125 34.4375 C78.924508 35.8548016 79.27894849 37.27204199 79.63362122 38.68922424 C80.37117185 41.63951593 81.10631157 44.59039408 81.83959961 47.54174805 C82.78043971 51.32794585 83.72656306 55.11279943 84.67435741 58.89726162 C85.40446877 61.81437286 86.13223872 64.73206409 86.85924721 67.64995003 C87.20749479 69.04679078 87.5563778 70.44347327 87.90590477 71.83999443 C88.39165929 73.78264297 88.87401567 75.72614026 89.35620117 77.66967773 C89.63139084 78.77504379 89.90658051 79.88040985 90.19010925 81.01927185 C90.77734375 83.62890625 90.77734375 83.62890625 90.77734375 85.62890625 C216.17734375 85.62890625 341.57734375 85.62890625 470.77734375 85.62890625 C472.42734375 91.89890625 474.07734375 98.16890625 475.77734375 104.62890625 C477.25017321 108.40380527 478.6619811 111.86058845 480.46484375 115.44140625 C481.10993896 116.75238281 481.10993896 116.75238281 481.76806641 118.08984375 C496.41537185 147.05386382 522.1595597 168.2452398 552.77734375 178.62890625 C565.79760566 182.7983861 579.20200043 183.7434404 592.77734375 184.62890625 C592.09710584 190.55037729 591.14259281 196.36876929 590.02734375 202.22265625 C589.76673157 203.6069281 589.76673157 203.6069281 589.50085449 205.01916504 C588.92858438 208.05617159 588.3529391 211.09252833 587.77734375 214.12890625 C587.37148672 216.27989924 586.96589239 218.43094181 586.56054688 220.58203125 C585.7184655 225.04967194 584.87525547 229.51709742 584.03125 233.984375 C582.28894778 243.21093155 580.56038895 252.44005828 578.83178711 261.66918945 C577.89763009 266.65588498 576.96243041 271.64238498 576.02734375 276.62890625 C575.65233884 278.62890533 575.27733884 280.62890533 574.90234375 282.62890625 C563.65234376 342.62890621 563.65234376 342.62890621 563.08992004 345.62849426 C562.71466327 347.62986709 562.33940896 349.63124038 561.9641571 351.63261414 C561.03060577 356.6116136 560.09701266 361.59060522 559.16333008 366.56958008 C557.42881149 375.8193493 555.69468395 385.06919128 553.96200562 394.31930542 C553.15663355 398.61874332 552.35102975 402.91813778 551.54541016 407.2175293 C551.16687739 409.23801561 550.78845414 411.25852244 550.41015625 413.27905273 C550.23226562 414.22917236 550.054375 415.17929199 549.87109375 416.15820312 C549.69639557 417.09181671 549.52169739 418.0254303 549.34170532 418.98733521 C548.99715185 420.8233202 548.65096935 422.65900031 548.30307007 424.49435425 C547.42588026 429.12609401 546.57523932 433.76029049 545.76806641 438.40478516 C545.59978836 439.34755814 545.43151031 440.29033112 545.25813293 441.26167297 C544.94140509 443.03774129 544.63390171 444.81549259 544.3379364 446.59513855 C543.07846699 453.55405582 541.02947173 459.32559355 536.02734375 464.44140625 C527.87917407 469.92575123 520.37141442 470.1391135 510.77734375 470.31640625 C509.52566406 470.35056641 508.27398438 470.38472656 506.984375 470.41992188 C503.91545418 470.50191594 500.84680169 470.57122644 497.77734375 470.62890625 C498.85371094 470.98082031 499.93007813 471.33273437 501.0390625 471.6953125 C526.02478394 480.05549926 544.59125541 493.99902936 556.77734375 517.62890625 C565.83874256 537.01398828 568.39019029 560.24519287 561.04492188 580.66503906 C551.92180392 604.15105134 537.18283502 622.35509337 514.05078125 632.8671875 C494.21497357 641.30357873 471.2112595 643.2302375 450.77734375 635.62890625 C427.80172665 626.12931952 410.63581237 610.19569804 400.40234375 587.56640625 C395.99494791 576.44997452 394.52600056 566.95965779 394.46484375 555.06640625 C394.4592041 554.02572998 394.45356445 552.98505371 394.44775391 551.9128418 C394.5436667 541.59083686 395.755039 531.72922139 399.83984375 522.19140625 C400.14220947 521.47404297 400.4445752 520.75667969 400.75610352 520.01757812 C403.90068635 512.86899377 407.96163093 506.77019855 412.77734375 500.62890625 C413.41414063 499.8090625 414.0509375 498.98921875 414.70703125 498.14453125 C426.50064203 483.9530494 443.3383406 475.61147858 460.77734375 470.62890625 C373.98734375 470.62890625 287.19734375 470.62890625 197.77734375 470.62890625 C203.38734375 472.27890625 208.99734375 473.92890625 214.77734375 475.62890625 C223.3866566 479.73965923 230.67745548 484.28063482 237.77734375 490.62890625 C238.61007812 491.36753906 239.4428125 492.10617187 240.30078125 492.8671875 C255.68991698 507.33297508 265.16636179 527.43574615 266.09375 548.54296875 C266.76712491 573.79261501 259.57659099 595.67068855 242.01171875 614.35546875 C241.274375 615.10570312 240.53703125 615.8559375 239.77734375 616.62890625 C239.16375 617.25539063 238.55015625 617.881875 237.91796875 618.52734375 C220.94170053 634.56048596 197.78802026 640.4630832 175.06640625 639.9140625 C152.91713696 638.97246247 132.25479703 627.89579279 117.15234375 611.94140625 C102.90324583 595.50207596 95.60614133 575.36449964 95.58984375 553.75390625 C95.57759766 552.90699219 95.56535156 552.06007813 95.55273438 551.1875 C95.53945062 545.40463928 96.284271 540.20874004 97.77734375 534.62890625 C98.0609375 533.53964844 98.34453125 532.45039062 98.63671875 531.328125 C105.24664062 508.97615237 119.01175047 490.81644333 139.54296875 479.52734375 C140.90986316 478.80568334 142.27967179 478.08951568 143.65234375 477.37890625 C144.2757666 477.04938965 144.89918945 476.71987305 145.54150391 476.38037109 C151.36480888 473.47836721 157.45061441 472.04717119 163.77734375 470.62890625 C162.47700195 470.6148877 162.47700195 470.6148877 161.15039062 470.60058594 C157.89958634 470.55628048 154.64968748 470.49453672 151.39941406 470.42138672 C149.99914414 470.39335554 148.59872124 470.37205309 147.19824219 470.35791016 C137.95095435 470.25897341 130.78217497 470.01467298 123.53515625 463.6640625 C122.99632812 463.01308594 122.4575 462.36210938 121.90234375 461.69140625 C121.34804688 461.04300781 120.79375 460.39460938 120.22265625 459.7265625 C117.40097504 455.63131166 116.42739573 451.38628741 115.62109375 446.53125 C115.40855957 445.28230957 115.19602539 444.03336914 114.97705078 442.74658203 C114.86411682 442.07081116 114.75118286 441.39504028 114.63482666 440.6987915 C111.97540578 424.83534822 108.96787005 409.04307235 105.90234375 393.25390625 C102.76250394 377.06231259 99.69358901 360.86228632 96.77734375 344.62890625 C93.897803 328.60483261 90.87380397 312.61244977 87.77734375 296.62890625 C84.68088171 280.64535333 81.65746033 264.65288098 78.77734375 248.62890625 C75.85177075 232.35594404 72.78849517 216.11259485 69.65234375 199.87890625 C69.43743286 198.76631439 69.22252197 197.65372253 69.00109863 196.50741577 C68.16203024 192.16435104 67.32284859 187.82130822 66.48339844 183.47831726 C64.80796371 174.80369386 63.15572 166.12497968 61.52734375 157.44140625 C61.29587646 156.2105127 61.06440918 154.97961914 60.82592773 153.71142578 C59.73555847 147.88084413 58.66885331 142.04699674 57.64541626 136.20433044 C57.1299982 133.26272218 56.60891214 130.32212433 56.08825684 127.38143921 C55.73335875 125.35939606 55.38837745 123.33561976 55.04394531 121.31176758 C53.55281639 112.87010591 51.50812296 104.75268394 49.15307617 96.51953125 C46.81670159 88.31133354 44.77386189 80.0245076 42.70043945 71.74682617 C41.95396294 68.77305998 41.19869243 65.8016055 40.44335938 62.83007812 C39.96430735 60.92331177 39.48577186 59.01641554 39.0078125 57.109375 C38.7828862 56.22920212 38.5579599 55.34902924 38.32621765 54.44218445 C38.12212784 53.61974747 37.91803802 52.79731049 37.70776367 51.94995117 C37.52743088 51.23369064 37.34709808 50.51743011 37.16130066 49.77946472 C36.72946907 47.36075818 36.7134026 45.08086724 36.77734375 42.62890625 C35.80800903 42.64222992 35.80800903 42.64222992 34.8190918 42.65582275 C28.07040281 42.7445745 21.32188066 42.80475603 14.57275391 42.84863281 C12.05673484 42.86870141 9.54076214 42.89596255 7.02490234 42.93066406 C3.40059947 42.97938937 -0.22308466 43.00192347 -3.84765625 43.01953125 C-5.52468628 43.05049896 -5.52468628 43.05049896 -7.2355957 43.08209229 C-14.90391988 43.08427691 -20.27388047 42.03644057 -26.24609375 36.8828125 C-26.69210938 36.32464844 -27.138125 35.76648438 -27.59765625 35.19140625 C-28.05914062 34.63582031 -28.520625 34.08023438 -28.99609375 33.5078125 C-32.67879236 27.8664812 -33.19784677 22.19167491 -32.22265625 15.62890625 C-29.77927921 9.06058851 -26.34384439 5.01065088 -20.21180725 1.70373535 C-13.77972997 -0.60908988 -6.75398669 -0.06089276 0 0 Z " fill="#D0D6DF" transform="translate(231.22265625,241.37109375)"/>
<path d="M0 0 C2.35651208 0.00315463 4.71175779 -0.02035937 7.06811523 -0.0456543 C38.5275265 -0.17909059 67.93178151 13.80872438 90.24584961 35.56567383 C112.82675146 58.35176487 125.69222006 89.32446132 125.74584961 121.37817383 C125.71585427 124.35864784 125.64671173 127.33640911 125.55834961 130.31567383 C125.52870117 131.47325195 125.49905273 132.63083008 125.46850586 133.82348633 C124.27645738 157.49000972 113.41897918 181.45770772 98.65991211 199.70629883 C96.49116635 202.31906322 96.49116635 202.31906322 94.55834961 205.31567383 C93.89834961 205.31567383 93.23834961 205.31567383 92.55834961 205.31567383 C92.31600586 205.8905957 92.07366211 206.46551758 91.82397461 207.05786133 C82.26341402 224.11342929 54.22680768 236.34455158 36.44506836 241.57739258 C35.49245117 241.82102539 34.53983398 242.0646582 33.55834961 242.31567383 C31.92833008 242.7584668 31.92833008 242.7584668 30.26538086 243.21020508 C11.74917524 247.48317561 -9.04509812 247.00462035 -27.44165039 242.31567383 C-28.09987793 242.14938477 -28.75810547 241.9830957 -29.4362793 241.81176758 C-59.96993153 233.85991216 -86.90391925 213.36648027 -103.21264648 186.44897461 C-110.1280397 174.4452587 -117.44165039 160.41493972 -117.44165039 146.31567383 C-242.84165039 146.31567383 -368.24165039 146.31567383 -497.44165039 146.31567383 C-497.44165039 145.98567383 -497.44165039 145.65567383 -497.44165039 145.31567383 C-372.37165039 145.31567383 -247.30165039 145.31567383 -118.44165039 145.31567383 C-119.10165039 140.69567383 -119.76165039 136.07567383 -120.44165039 131.31567383 C-122.62570994 99.9111965 -113.40625767 68.70549889 -93.00415039 44.50317383 C-91.17888288 42.41342943 -89.31621764 40.36115549 -87.44165039 38.31567383 C-86.6746582 37.45458008 -85.90766602 36.59348633 -85.11743164 35.70629883 C-63.16668447 12.3021066 -31.67537098 -0.08841466 0 0 Z " fill="#564F6E" transform="translate(819.441650390625,180.684326171875)"/>
<path d="M0 0 C0.72958347 -0.00453111 1.45916694 -0.00906223 2.210859 -0.01373065 C4.65041832 -0.02636949 7.08975425 -0.02475462 9.52934265 -0.02310181 C11.2806273 -0.02908741 13.03190932 -0.03589303 14.78318787 -0.04345703 C19.53742366 -0.06112165 24.29158746 -0.06581263 29.0458529 -0.0670886 C32.01740469 -0.06851057 34.98893821 -0.07278105 37.96048546 -0.07808304 C48.33094316 -0.09658529 58.70134946 -0.10475346 69.07182312 -0.10317993 C78.73247081 -0.10197869 88.39289502 -0.12307723 98.05348617 -0.15466726 C106.35259243 -0.18083634 114.65162574 -0.19154695 122.95077294 -0.19026911 C127.90524316 -0.18975964 132.8595148 -0.19543478 137.81394386 -0.21662521 C142.47534565 -0.23601804 147.13635964 -0.23612492 151.79777527 -0.22159195 C153.50534826 -0.219504 155.21294558 -0.22420391 156.92047691 -0.23631287 C166.99302214 -0.30309672 174.26498323 -0.14424762 182.4070282 6.51742554 C186.99657901 12.12687652 189.4984134 17.29987399 189.16874695 24.67758179 C187.90146134 31.0914013 184.18942394 36.46498145 178.9695282 40.32992554 C174.28641783 43.0691033 170.75698757 43.41600676 165.4786377 43.41459656 C164.74259597 43.41827325 164.00655424 43.42194993 163.24820822 43.42573804 C160.77485539 43.43677592 158.30154456 43.4406189 155.82817078 43.44442749 C154.0574785 43.4506921 152.28678754 43.4573389 150.51609802 43.46434021 C144.69459448 43.48538458 138.87309067 43.49574344 133.05155945 43.50570679 C131.04735996 43.5097543 129.04316061 43.51387122 127.03896141 43.51805687 C117.62246288 43.53710994 108.2059722 43.55134032 98.7894581 43.55966884 C87.92140882 43.56943992 77.05356329 43.59575562 66.1855858 43.63616973 C57.78461879 43.66633722 49.38371016 43.68113835 40.98269004 43.68444985 C35.96557974 43.68679977 30.94868707 43.69575255 25.9316349 43.72091103 C21.20954083 43.74420754 16.48780744 43.7484186 11.76567078 43.73814964 C10.03551725 43.73765454 8.30534587 43.74396734 6.57524681 43.75770569 C-10.98694578 43.88932444 -10.98694578 43.88932444 -18.3664093 37.52133179 C-18.81242493 36.96316772 -19.25844055 36.40500366 -19.7179718 35.82992554 C-20.17945618 35.2743396 -20.64094055 34.71875366 -21.1164093 34.14633179 C-24.83181369 28.45490022 -25.0672752 22.87901554 -24.3429718 16.26742554 C-22.53353754 9.57939002 -18.1985379 5.69135059 -12.3429718 2.26742554 C-8.13565753 0.21439527 -4.65887437 0.01196552 0 0 Z " fill="#1F1F30" transform="translate(479.3429718017578,496.7325744628906)"/>
<path d="M0 0 C5.64241537 4.92607394 8.62385281 9.78910554 9.30078125 17.3671875 C9.33592768 27.88768671 8.2599665 34.29032537 1.05078125 42.1015625 C-2.31762586 45.21974508 -6.07100273 47.64794721 -10 50 C-7.54101133 51.98560048 -5.07587717 53.94384368 -2.53515625 55.82421875 C3.31140863 60.22992404 7.43756326 64.59724208 11 71 C11.37382813 71.59941406 11.74765625 72.19882812 12.1328125 72.81640625 C14.634752 79.116335 13.97280295 88.71349447 11.4375 94.9375 C5.8043448 105.30718361 -1.92117704 110.0951315 -12.87890625 114.03515625 C-27.81409855 118.403954 -44.05438225 116.83986466 -57.74609375 109.43359375 C-64.84129328 104.92070254 -69.15840101 99.2602715 -71 91 C-72.25143327 80.47707847 -71.44358663 71.85006898 -65 63 C-60.85628016 58.51460502 -56.36011186 54.9342376 -51 52 C-50.34 52 -49.68 52 -49 52 C-49 51.34 -49 50.68 -49 50 C-49.58007812 49.73058594 -50.16015625 49.46117187 -50.7578125 49.18359375 C-58.54780191 45.07145648 -64.24983068 38.35124676 -67 30 C-68.37832264 20.97187353 -67.5662234 12.86369425 -62.78125 4.99609375 C-57.281005 -1.69475307 -49.18468417 -6.25184524 -40.640625 -7.7578125 C-25.97567935 -9.10282231 -12.68942634 -8.10267167 0 0 Z " fill="#CFD5DE" transform="translate(851,247)"/>
<path d="M0 0 C1.73416184 1.21391329 3.44525659 2.46183664 5.125 3.75 C6.11113281 4.50216797 6.11113281 4.50216797 7.1171875 5.26953125 C15.63749082 12.74846416 19.42345425 23.87264345 20.3984375 34.8203125 C20.7605225 45.71071531 17.7728368 55.48859066 10.7890625 63.9765625 C2.02165441 73.32023216 -7.25977556 78.77375684 -20.26757812 79.23266602 C-33.55366436 79.33582788 -43.91966854 75.83514205 -53.68359375 66.3125 C-62.73471437 55.72865842 -65.62701499 45.43340315 -64.875 31.75 C-63.90334857 21.01481885 -58.95137606 11.83270212 -51.06640625 4.53125 C-36.12899147 -7.61039196 -16.8352634 -10.29078601 0 0 Z " fill="#1F1F30" transform="translate(732.875,759.25)"/>
<path d="M0 0 C0.99 0.721875 1.98 1.44375 3 2.1875 C12.41840822 10.19685502 16.1880155 21.88015502 17.375 33.75 C17.08931008 43.12062946 13.59930486 52.55857856 8 60 C7.443125 60.845625 6.88625 61.69125 6.3125 62.5625 C-2.0356529 71.3619044 -12.38140948 76.00709881 -24.44702148 76.41967773 C-38.08307221 76.52814801 -47.27064052 72.51788544 -57.25 63.25 C-65.90386701 54.23411863 -68.46131869 43.04640468 -68.43164062 30.91796875 C-68.14125874 19.41509936 -63.18378381 10.01733397 -55 2 C-38.54474216 -10.71324585 -17.15550475 -13.16585248 0 0 Z " fill="#1F1F30" transform="translate(438,762)"/>
<path d="M0 0 C6.26104494 3.18449699 13.44680975 7.08900859 16 14 C16.77485131 18.46027857 17.00447616 22.71919404 15.1484375 26.93359375 C12.07342581 31.12774235 7.92669546 32.96823132 3 34 C-3.33695317 34.72537461 -9.4343969 34.33936186 -15 31 C-18.88885579 27.45939995 -20.805391 24.02393357 -21.3125 18.75 C-20.67970867 11.15650399 -16.5318429 7.2019831 -11 2.48046875 C-7.00748347 -0.47492923 -4.90276417 -1.550573 0 0 Z " fill="#575070" transform="translate(824,310)"/>
<path d="M0 0 C2.68515784 1.69971814 4.13555713 3.54708569 5.8984375 6.19140625 C6.61041279 11.00137886 6.40884953 15.06424635 4.3984375 19.50390625 C0.56442412 23.62547064 -3.31829556 27.01745207 -9.1015625 27.37890625 C-13.84701469 25.50049809 -18.49076851 22.69417085 -21.30078125 18.328125 C-22.92246094 14.00100894 -22.90941973 9.70628579 -22.1015625 5.19140625 C-17.92548071 -2.52846326 -7.48866393 -2.88132609 0 0 Z " fill="#575070" transform="translate(830.1015625,258.80859375)"/>
</svg>
