<?xml version="1.0" encoding="UTF-8"?>
<svg version="1.1" xmlns="http://www.w3.org/2000/svg" width="1080" height="1080">
<path d="M0 0 C356.4 0 712.8 0 1080 0 C1080 356.4 1080 712.8 1080 1080 C723.6 1080 367.2 1080 0 1080 C0 723.6 0 367.2 0 0 Z " fill="#1E1E2F" transform="translate(0,0)"/>
<path d="M0 0 C1.67191217 -0.00083009 3.34382425 -0.00329473 5.01573181 -0.00730896 C8.50658965 -0.01015595 11.99680197 0.00442719 15.48754883 0.03198242 C19.94509567 0.06609033 24.40149142 0.06002793 28.85909367 0.04131985 C32.30713877 0.03071457 35.75491942 0.03971907 39.20293999 0.05470467 C40.84585216 0.05985932 42.48879225 0.05943794 44.13170052 0.05315971 C61.94425941 0.01062566 61.94425941 0.01062566 69.58984375 7.31640625 C74.83127897 15.25343673 76.30710542 25.31827593 78.5703125 34.4375 C78.924508 35.8548016 79.27894849 37.27204199 79.63362122 38.68922424 C80.37117185 41.63951593 81.10631157 44.59039408 81.83959961 47.54174805 C82.78043971 51.32794585 83.72656306 55.11279943 84.67435741 58.89726162 C85.40446877 61.81437286 86.13223872 64.73206409 86.85924721 67.64995003 C87.20749479 69.04679078 87.5563778 70.44347327 87.90590477 71.83999443 C88.39165929 73.78264297 88.87401567 75.72614026 89.35620117 77.66967773 C89.63139084 78.77504379 89.90658051 79.88040985 90.19010925 81.01927185 C90.77734375 83.62890625 90.77734375 83.62890625 90.77734375 85.62890625 C216.17734375 85.62890625 341.57734375 85.62890625 470.77734375 85.62890625 C472.75734375 93.05390625 472.75734375 93.05390625 474.77734375 100.62890625 C485.42441376 131.97068338 506.56655063 156.44387367 535.77734375 171.62890625 C554.16923207 180.65382427 572.49831388 183.28149824 592.77734375 184.62890625 C592.1256799 191.2903118 591.07180244 197.77239643 589.7734375 204.3359375 C589.57476578 205.35709152 589.37609406 206.37824554 589.17140198 207.43034363 C588.74450803 209.62416705 588.31615541 211.81770704 587.88647461 214.01098633 C586.73575131 219.88841745 585.59758345 225.76826985 584.4609375 231.6484375 C584.23095062 232.83801056 584.00096375 234.02758362 583.76400757 235.25320435 C581.68710038 246.03075601 579.71616649 256.82580247 577.77734375 267.62890625 C574.89397245 283.67289881 571.87256615 299.6869559 568.77734375 315.69140625 C565.70525378 331.57800552 562.66194605 347.46860673 559.71484375 363.37890625 C559.47707214 364.66237442 559.47707214 364.66237442 559.23449707 365.97177124 C558.59070484 369.44770034 557.9470566 372.92365603 557.30374146 376.39967346 C555.42184691 386.56140378 553.51863731 396.71913604 551.61380005 406.87658691 C551.23138081 408.9158643 550.84911049 410.95516961 550.4670105 412.99450684 C550.28703522 413.95505981 550.10705994 414.91561279 549.92163086 415.90527344 C549.74454086 416.85088135 549.56745087 417.79648926 549.38499451 418.77075195 C549.03460775 420.63614266 548.68255179 422.50122068 548.32875061 424.3659668 C547.44121022 429.04777672 546.57983665 433.73193663 545.76367188 438.42675781 C545.59534851 439.36975739 545.42702515 440.31275696 545.25360107 441.28433228 C544.93732511 443.05811104 544.63027551 444.83357304 544.33477783 446.6109314 C543.07670472 453.56357354 541.0246877 459.3304863 536.02734375 464.44140625 C527.87917407 469.92575123 520.37141442 470.1391135 510.77734375 470.31640625 C509.52566406 470.35056641 508.27398438 470.38472656 506.984375 470.41992188 C503.91545418 470.50191594 500.84680169 470.57122644 497.77734375 470.62890625 C498.85371094 470.98082031 499.93007813 471.33273437 501.0390625 471.6953125 C526.02478394 480.05549926 544.59125541 493.99902936 556.77734375 517.62890625 C566.84081915 539.15773421 567.52954863 561.86554459 559.58984375 584.12890625 C550.28701447 606.91530058 534.66351831 624.1003595 511.93261719 633.76806641 C492.01185849 641.72463586 468.78766314 643.07552195 448.73193359 634.78320312 C426.6678611 625.11381197 409.16918273 608.96710964 399.83984375 586.55078125 C392.57237253 566.56523539 391.3281635 542.06575465 399.83984375 522.19140625 C400.14220947 521.47404297 400.4445752 520.75667969 400.75610352 520.01757812 C403.90068635 512.86899377 407.96163093 506.77019855 412.77734375 500.62890625 C413.41414063 499.8090625 414.0509375 498.98921875 414.70703125 498.14453125 C426.50064203 483.9530494 443.3383406 475.61147858 460.77734375 470.62890625 C373.98734375 470.62890625 287.19734375 470.62890625 197.77734375 470.62890625 C203.38734375 472.27890625 208.99734375 473.92890625 214.77734375 475.62890625 C223.3866566 479.73965923 230.67745548 484.28063482 237.77734375 490.62890625 C238.61007812 491.36753906 239.4428125 492.10617187 240.30078125 492.8671875 C255.70097161 507.34336644 265.27857117 527.53848165 266.05859375 548.68359375 C266.10074697 550.89435025 266.13191447 553.10534229 266.15234375 555.31640625 C266.1663623 556.36159424 266.18038086 557.40678223 266.19482422 558.48364258 C266.15083755 565.6314761 264.98981911 571.84365488 262.77734375 578.62890625 C262.44992187 579.66144531 262.1225 580.69398438 261.78515625 581.7578125 C253.4087129 604.84862759 238.34791794 621.87569054 216.21484375 632.44140625 C194.9360443 641.53840779 171.35422822 642.85270908 149.65234375 634.37890625 C126.77627089 624.18810252 110.00225705 607.98146246 100.8046875 584.4765625 C97.077634 574.14568037 95.59818809 564.64752816 95.58984375 553.69140625 C95.57759766 552.84900391 95.56535156 552.00660156 95.55273438 551.13867188 C95.53941957 545.37336064 96.29032266 540.19210672 97.77734375 534.62890625 C98.0609375 533.53964844 98.34453125 532.45039062 98.63671875 531.328125 C105.24664062 508.97615237 119.01175047 490.81644333 139.54296875 479.52734375 C140.90986316 478.80568334 142.27967179 478.08951568 143.65234375 477.37890625 C144.2757666 477.04938965 144.89918945 476.71987305 145.54150391 476.38037109 C151.36480888 473.47836721 157.45061441 472.04717119 163.77734375 470.62890625 C162.47700195 470.6148877 162.47700195 470.6148877 161.15039062 470.60058594 C157.89958634 470.55628048 154.64968748 470.49453672 151.39941406 470.42138672 C149.99914414 470.39335554 148.59872124 470.37205309 147.19824219 470.35791016 C137.95095435 470.25897341 130.78217497 470.01467298 123.53515625 463.6640625 C122.99632812 463.01308594 122.4575 462.36210938 121.90234375 461.69140625 C121.34804688 461.04300781 120.79375 460.39460938 120.22265625 459.7265625 C117.40097504 455.63131166 116.42739573 451.38628741 115.62109375 446.53125 C115.40855957 445.28230957 115.19602539 444.03336914 114.97705078 442.74658203 C114.86411682 442.07081116 114.75118286 441.39504028 114.63482666 440.6987915 C111.97540578 424.83534822 108.96787005 409.04307235 105.90234375 393.25390625 C102.76250394 377.06231259 99.69358901 360.86228632 96.77734375 344.62890625 C93.69835052 327.49491907 90.4454309 310.39841736 87.1338501 293.30795288 C84.20880724 278.20256378 81.3748643 263.08457944 78.65234375 247.94140625 C76.13809732 233.96014481 73.5225666 220.00419269 70.77734375 206.06640625 C67.99430754 191.93401347 65.28292761 177.79051255 62.65234375 163.62890625 C62.40150528 162.28143311 62.40150528 162.28143311 62.14559937 160.90673828 C60.42972251 151.68422599 58.73795833 142.45847935 57.1171875 133.21875 C56.85511435 131.73630445 56.59291036 130.25388203 56.33056641 128.77148438 C55.85803084 126.10106117 55.39682967 123.42958971 54.94287109 120.75585938 C53.6308519 113.31810887 51.89240202 106.11846059 49.82058716 98.86578369 C47.25322216 89.87545728 44.9720437 80.81570476 42.70043945 71.74682617 C41.95396294 68.77305998 41.19869243 65.8016055 40.44335938 62.83007812 C39.96430735 60.92331177 39.48577186 59.01641554 39.0078125 57.109375 C38.7828862 56.22920212 38.5579599 55.34902924 38.32621765 54.44218445 C38.12212784 53.61974747 37.91803802 52.79731049 37.70776367 51.94995117 C37.52743088 51.23369064 37.34709808 50.51743011 37.16130066 49.77946472 C36.72946907 47.36075818 36.7134026 45.08086724 36.77734375 42.62890625 C35.80800903 42.64222992 35.80800903 42.64222992 34.8190918 42.65582275 C28.07040281 42.7445745 21.32188066 42.80475603 14.57275391 42.84863281 C12.05673484 42.86870141 9.54076214 42.89596255 7.02490234 42.93066406 C3.40059947 42.97938937 -0.22308466 43.00192347 -3.84765625 43.01953125 C-5.52468628 43.05049896 -5.52468628 43.05049896 -7.2355957 43.08209229 C-14.90391988 43.08427691 -20.27388047 42.03644057 -26.24609375 36.8828125 C-26.69210938 36.32464844 -27.138125 35.76648438 -27.59765625 35.19140625 C-28.05914062 34.63582031 -28.520625 34.08023438 -28.99609375 33.5078125 C-32.67879236 27.8664812 -33.19784677 22.19167491 -32.22265625 15.62890625 C-29.77927921 9.06058851 -26.34384439 5.01065088 -20.21180725 1.70373535 C-13.77972997 -0.60908988 -6.75398669 -0.06089276 0 0 Z " fill="#D0D6DF" transform="translate(231.22265625,241.37109375)"/>
<path d="M0 0 C2.35651208 0.00315463 4.71175779 -0.02035937 7.06811523 -0.0456543 C38.5275265 -0.17909059 67.93178151 13.80872438 90.24584961 35.56567383 C113.3741601 58.90414772 125.61954416 90.1174739 125.80834961 122.81567383 C125.66389655 152.27621952 115.33735876 179.75686411 96.55834961 202.31567383 C95.85452148 203.16129883 95.15069336 204.00692383 94.42553711 204.87817383 C74.59180776 227.90085574 45.61325953 241.94277813 15.55834961 245.31567383 C-22.3052963 247.07076198 -54.52175222 237.41696646 -82.92944336 211.72143555 C-100.14647285 195.71632483 -111.97754401 174.11781006 -117.44165039 151.31567383 C-117.44165039 149.66567383 -117.44165039 148.01567383 -117.44165039 146.31567383 C-242.84165039 146.31567383 -368.24165039 146.31567383 -497.44165039 146.31567383 C-497.44165039 145.98567383 -497.44165039 145.65567383 -497.44165039 145.31567383 C-372.37165039 145.31567383 -247.30165039 145.31567383 -118.44165039 145.31567383 C-119.10165039 142.34567383 -119.76165039 139.37567383 -120.44165039 136.31567383 C-123.59553814 104.20633222 -114.87568821 71.30588569 -94.40136719 46.16064453 C-92.14613824 43.48534323 -89.80541566 40.89495633 -87.44165039 38.31567383 C-86.6746582 37.45458008 -85.90766602 36.59348633 -85.11743164 35.70629883 C-63.16668447 12.3021066 -31.67537098 -0.08841466 0 0 Z " fill="#554F6E" transform="translate(819.441650390625,180.684326171875)"/>
<path d="M0 0 C0.72958347 -0.00453111 1.45916694 -0.00906223 2.210859 -0.01373065 C4.65041832 -0.02636949 7.08975425 -0.02475462 9.52934265 -0.02310181 C11.2806273 -0.02908741 13.03190932 -0.03589303 14.78318787 -0.04345703 C19.53742366 -0.06112165 24.29158746 -0.06581263 29.0458529 -0.0670886 C32.01740469 -0.06851057 34.98893821 -0.07278105 37.96048546 -0.07808304 C48.33094316 -0.09658529 58.70134946 -0.10475346 69.07182312 -0.10317993 C78.73247081 -0.10197869 88.39289502 -0.12307723 98.05348617 -0.15466726 C106.35259243 -0.18083634 114.65162574 -0.19154695 122.95077294 -0.19026911 C127.90524316 -0.18975964 132.8595148 -0.19543478 137.81394386 -0.21662521 C142.47534565 -0.23601804 147.13635964 -0.23612492 151.79777527 -0.22159195 C153.50534826 -0.219504 155.21294558 -0.22420391 156.92047691 -0.23631287 C166.99302214 -0.30309672 174.26498323 -0.14424762 182.4070282 6.51742554 C186.99657901 12.12687652 189.4984134 17.29987399 189.16874695 24.67758179 C187.90146134 31.0914013 184.18942394 36.46498145 178.9695282 40.32992554 C174.28641783 43.0691033 170.75698757 43.41600676 165.4786377 43.41459656 C164.74259597 43.41827325 164.00655424 43.42194993 163.24820822 43.42573804 C160.77485539 43.43677592 158.30154456 43.4406189 155.82817078 43.44442749 C154.0574785 43.4506921 152.28678754 43.4573389 150.51609802 43.46434021 C144.69459448 43.48538458 138.87309067 43.49574344 133.05155945 43.50570679 C131.04735996 43.5097543 129.04316061 43.51387122 127.03896141 43.51805687 C117.62246288 43.53710994 108.2059722 43.55134032 98.7894581 43.55966884 C87.92140882 43.56943992 77.05356329 43.59575562 66.1855858 43.63616973 C57.78461879 43.66633722 49.38371016 43.68113835 40.98269004 43.68444985 C35.96557974 43.68679977 30.94868707 43.69575255 25.9316349 43.72091103 C21.20954083 43.74420754 16.48780744 43.7484186 11.76567078 43.73814964 C10.03551725 43.73765454 8.30534587 43.74396734 6.57524681 43.75770569 C-10.98694578 43.88932444 -10.98694578 43.88932444 -18.3664093 37.52133179 C-18.81242493 36.96316772 -19.25844055 36.40500366 -19.7179718 35.82992554 C-20.17945618 35.2743396 -20.64094055 34.71875366 -21.1164093 34.14633179 C-24.83181369 28.45490022 -25.0672752 22.87901554 -24.3429718 16.26742554 C-22.53353754 9.57939002 -18.1985379 5.69135059 -12.3429718 2.26742554 C-8.13565753 0.21439527 -4.65887437 0.01196552 0 0 Z " fill="#1F1F30" transform="translate(479.3429718017578,496.7325744628906)"/>
<path d="M0 0 C0 25.08 0 50.16 0 76 C4.62 76 9.24 76 14 76 C14 82.6 14 89.2 14 96 C9.38 96 4.76 96 0 96 C0 104.25 0 112.5 0 121 C-8.25 121 -16.5 121 -25 121 C-25 112.75 -25 104.5 -25 96 C-41.83 96 -58.66 96 -76 96 C-76 74.23528849 -76 74.23528849 -68.6875 65.0625 C-67.52134376 63.47861615 -66.35529163 61.8946482 -65.19398499 60.3072052 C-63.97472697 58.65095655 -62.73756079 57.00928975 -61.49804688 55.36816406 C-57.686016 50.27889869 -54.17317979 44.98682201 -50.63311768 39.70687866 C-49.43893081 37.93961744 -48.22710537 36.18585119 -47.00927734 34.43481445 C-43.44535182 29.28750715 -40.00431362 24.1675754 -37.03398132 18.65016174 C-36.09944909 16.91955263 -35.12524278 15.21055836 -34.15063477 13.50219727 C-32.29323641 10.30934486 -32.29323641 10.30934486 -30.83178711 7.10913086 C-23.69531961 -5.14480354 -15.28651299 0 0 0 Z " fill="#CFD5DE" transform="translate(852,241)"/>
<path d="M0 0 C1.73416184 1.21391329 3.44525659 2.46183664 5.125 3.75 C6.11113281 4.50216797 6.11113281 4.50216797 7.1171875 5.26953125 C15.63749082 12.74846416 19.42345425 23.87264345 20.3984375 34.8203125 C20.7605225 45.71071531 17.7728368 55.48859066 10.7890625 63.9765625 C2.02165441 73.32023216 -7.25977556 78.77375684 -20.26757812 79.23266602 C-33.55366436 79.33582788 -43.91966854 75.83514205 -53.68359375 66.3125 C-62.73471437 55.72865842 -65.62701499 45.43340315 -64.875 31.75 C-63.90334857 21.01481885 -58.95137606 11.83270212 -51.06640625 4.53125 C-36.12899147 -7.61039196 -16.8352634 -10.29078601 0 0 Z " fill="#1F1F30" transform="translate(732.875,759.25)"/>
<path d="M0 0 C0.99 0.721875 1.98 1.44375 3 2.1875 C12.41840822 10.19685502 16.1880155 21.88015502 17.375 33.75 C17.08931008 43.12062946 13.59930486 52.55857856 8 60 C7.443125 60.845625 6.88625 61.69125 6.3125 62.5625 C-2.0356529 71.3619044 -12.38140948 76.00709881 -24.44702148 76.41967773 C-37.29715354 76.52189629 -46.0450159 73.14626501 -55.6875 64.625 C-56.450625 63.75875 -57.21375 62.8925 -58 62 C-58.49242187 61.44957031 -58.98484375 60.89914062 -59.4921875 60.33203125 C-67.74481337 50.37550501 -69.24320521 38.61749707 -68.26611328 26.09765625 C-67.07753082 16.72857319 -61.63391304 8.498986 -55 2 C-38.54474216 -10.71324585 -17.15550475 -13.16585248 0 0 Z " fill="#1F1F30" transform="translate(438,762)"/>
<path d="M0 0 C0.33 0 0.66 0 1 0 C0.67 15.18 0.34 30.36 0 46 C-9.24 46 -18.48 46 -28 46 C-26.19790024 41.49475061 -24.06127472 37.81470794 -21.38671875 33.828125 C-20.70957573 32.80534454 -20.70957573 32.80534454 -20.01875305 31.76190186 C-18.57927368 29.58839649 -17.13396881 27.41885901 -15.6875 25.25 C-7.40428688 12.89307499 -7.40428688 12.89307499 0 0 Z " fill="#575070" transform="translate(827,271)"/>
</svg>
