<?xml version="1.0" encoding="UTF-8"?>
<svg version="1.1" xmlns="http://www.w3.org/2000/svg" width="1080" height="1080">
<path d="M0 0 C356.4 0 712.8 0 1080 0 C1080 356.4 1080 712.8 1080 1080 C723.6 1080 367.2 1080 0 1080 C0 723.6 0 367.2 0 0 Z " fill="#1E1E2F" transform="translate(0,0)"/>
<path d="M0 0 C1.67191217 -0.00083009 3.34382425 -0.00329473 5.01573181 -0.00730896 C8.50658965 -0.01015595 11.99680197 0.00442719 15.48754883 0.03198242 C19.94509567 0.06609033 24.40149142 0.06002793 28.85909367 0.04131985 C32.30713877 0.03071457 35.75491942 0.03971907 39.20293999 0.05470467 C40.84585216 0.05985932 42.48879225 0.05943794 44.13170052 0.05315971 C61.94425941 0.01062566 61.94425941 0.01062566 69.58984375 7.31640625 C74.83127897 15.25343673 76.30710542 25.31827593 78.5703125 34.4375 C78.924508 35.8548016 79.27894849 37.27204199 79.63362122 38.68922424 C80.37117185 41.63951593 81.10631157 44.59039408 81.83959961 47.54174805 C82.78043971 51.32794585 83.72656306 55.11279943 84.67435741 58.89726162 C85.40446877 61.81437286 86.13223872 64.73206409 86.85924721 67.64995003 C87.20749479 69.04679078 87.5563778 70.44347327 87.90590477 71.83999443 C88.39165929 73.78264297 88.87401567 75.72614026 89.35620117 77.66967773 C89.63139084 78.77504379 89.90658051 79.88040985 90.19010925 81.01927185 C90.77734375 83.62890625 90.77734375 83.62890625 90.77734375 85.62890625 C215.84734375 85.62890625 340.91734375 85.62890625 469.77734375 85.62890625 C472.74734375 94.20890625 475.71734375 102.78890625 478.77734375 111.62890625 C483.89588765 122.29253938 489.22370369 131.54655332 496.77734375 140.62890625 C497.5353125 141.55058594 498.29328125 142.47226562 499.07421875 143.421875 C522.91879485 171.04573849 555.47999708 181.87335352 590.88818359 184.49291992 C591.51160645 184.53779541 592.1350293 184.5826709 592.77734375 184.62890625 C592.12425713 191.30102632 591.06974976 197.79607642 589.7734375 204.37109375 C589.57472046 205.39516327 589.37600342 206.41923279 589.17126465 207.47433472 C588.74439563 209.67291678 588.3159957 211.87120207 587.88619995 214.06921387 C586.73782729 219.94434666 585.60181865 225.82187145 584.46484375 231.69921875 C584.12017311 233.47897095 584.12017311 233.47897095 583.76853943 235.29467773 C581.70211105 245.98052516 579.69506436 256.67679096 577.71484375 267.37890625 C577.39177956 269.12329384 577.06870006 270.86767859 576.74560547 272.61206055 C576.2572766 275.24887432 575.76899737 277.88569717 575.28097534 280.52256775 C573.31773347 291.12372133 571.32861529 301.72001794 569.33984375 312.31640625 C568.96085105 314.33626207 568.58186342 316.35611884 568.20288086 318.37597656 C567.44152538 322.43345336 566.68002625 326.49090316 565.91845703 330.54833984 C564.22352484 339.579108 562.53056666 348.61024624 560.83746338 357.64135742 C560.27956894 360.61703761 559.7215866 363.5927013 559.16357422 366.56835938 C557.42895913 375.81853267 555.69476034 385.06878344 553.96200562 394.31930542 C553.15663355 398.61874332 552.35102975 402.91813778 551.54541016 407.2175293 C551.16687739 409.23801561 550.78845414 411.25852244 550.41015625 413.27905273 C550.23226562 414.22917236 550.054375 415.17929199 549.87109375 416.15820312 C549.69639557 417.09181671 549.52169739 418.0254303 549.34170532 418.98733521 C548.99715185 420.8233202 548.65096935 422.65900031 548.30307007 424.49435425 C547.42588026 429.12609401 546.57523932 433.76029049 545.76806641 438.40478516 C545.59978836 439.34755814 545.43151031 440.29033112 545.25813293 441.26167297 C544.94140509 443.03774129 544.63390171 444.81549259 544.3379364 446.59513855 C543.07846699 453.55405582 541.02947173 459.32559355 536.02734375 464.44140625 C527.87917407 469.92575123 520.37141442 470.1391135 510.77734375 470.31640625 C509.52566406 470.35056641 508.27398438 470.38472656 506.984375 470.41992188 C503.91545418 470.50191594 500.84680169 470.57122644 497.77734375 470.62890625 C498.85371094 470.98082031 499.93007813 471.33273437 501.0390625 471.6953125 C526.02478394 480.05549926 544.59125541 493.99902936 556.77734375 517.62890625 C565.83874256 537.01398828 568.39019029 560.24519287 561.04492188 580.66503906 C551.92180392 604.15105134 537.18283502 622.35509337 514.05078125 632.8671875 C494.21497357 641.30357873 471.2112595 643.2302375 450.77734375 635.62890625 C427.80172665 626.12931952 410.63581237 610.19569804 400.40234375 587.56640625 C395.99494791 576.44997452 394.52600056 566.95965779 394.46484375 555.06640625 C394.4592041 554.02572998 394.45356445 552.98505371 394.44775391 551.9128418 C394.5436667 541.59083686 395.755039 531.72922139 399.83984375 522.19140625 C400.14220947 521.47404297 400.4445752 520.75667969 400.75610352 520.01757812 C403.90068635 512.86899377 407.96163093 506.77019855 412.77734375 500.62890625 C413.41414063 499.8090625 414.0509375 498.98921875 414.70703125 498.14453125 C426.50064203 483.9530494 443.3383406 475.61147858 460.77734375 470.62890625 C373.98734375 470.62890625 287.19734375 470.62890625 197.77734375 470.62890625 C203.38734375 472.27890625 208.99734375 473.92890625 214.77734375 475.62890625 C223.3866566 479.73965923 230.67745548 484.28063482 237.77734375 490.62890625 C238.61007812 491.36753906 239.4428125 492.10617187 240.30078125 492.8671875 C255.68991698 507.33297508 265.16636179 527.43574615 266.09375 548.54296875 C266.76712491 573.79261501 259.57659099 595.67068855 242.01171875 614.35546875 C241.274375 615.10570312 240.53703125 615.8559375 239.77734375 616.62890625 C239.16375 617.25539063 238.55015625 617.881875 237.91796875 618.52734375 C220.94170053 634.56048596 197.78802026 640.4630832 175.06640625 639.9140625 C152.91713696 638.97246247 132.25479703 627.89579279 117.15234375 611.94140625 C102.90324583 595.50207596 95.60614133 575.36449964 95.58984375 553.75390625 C95.57759766 552.90699219 95.56535156 552.06007813 95.55273438 551.1875 C95.53945062 545.40463928 96.284271 540.20874004 97.77734375 534.62890625 C98.0609375 533.53964844 98.34453125 532.45039062 98.63671875 531.328125 C105.24664062 508.97615237 119.01175047 490.81644333 139.54296875 479.52734375 C140.90986316 478.80568334 142.27967179 478.08951568 143.65234375 477.37890625 C144.2757666 477.04938965 144.89918945 476.71987305 145.54150391 476.38037109 C151.36480888 473.47836721 157.45061441 472.04717119 163.77734375 470.62890625 C162.47700195 470.6148877 162.47700195 470.6148877 161.15039062 470.60058594 C157.89958634 470.55628048 154.64968748 470.49453672 151.39941406 470.42138672 C149.99914414 470.39335554 148.59872124 470.37205309 147.19824219 470.35791016 C137.95095435 470.25897341 130.78217497 470.01467298 123.53515625 463.6640625 C122.99632812 463.01308594 122.4575 462.36210938 121.90234375 461.69140625 C121.34804688 461.04300781 120.79375 460.39460938 120.22265625 459.7265625 C117.40097504 455.63131166 116.42739573 451.38628741 115.62109375 446.53125 C115.40855957 445.28230957 115.19602539 444.03336914 114.97705078 442.74658203 C114.86411682 442.07081116 114.75118286 441.39504028 114.63482666 440.6987915 C111.97540578 424.83534822 108.96787005 409.04307235 105.90234375 393.25390625 C102.76250247 377.06230499 99.69404677 360.8622077 96.77734375 344.62890625 C93.91137059 328.68974375 90.91407161 312.77920513 87.83984375 296.87890625 C84.5870712 280.0536962 81.36490464 263.22367511 78.21484375 246.37890625 C78.03108185 245.39635864 77.84731995 244.41381104 77.6579895 243.40148926 C76.73332634 238.45594925 75.80957145 233.51024014 74.88623047 228.56445312 C73.20909179 219.58346704 71.52378253 210.60401287 69.83920288 201.62442017 C69.28098891 198.64834016 68.72308102 195.67220295 68.1652832 192.69604492 C66.42455636 183.4087168 64.68251 174.12164125 62.93621826 164.83535767 C62.12049797 160.49717963 61.30546385 156.1588728 60.49047852 151.82055664 C60.1055656 149.77264096 59.72032464 147.7247869 59.3347168 145.67700195 C58.7965037 142.818683 58.25949729 139.96013942 57.72265625 137.1015625 C57.46642487 135.74353012 57.46642487 135.74353012 57.20501709 134.35806274 C56.44033932 130.28203298 55.69666517 126.20613195 55.03027344 122.11279297 C53.6000849 113.37246841 51.60420013 104.97985008 49.15087891 96.47119141 C46.7987416 88.28387509 44.77000037 80.00909137 42.70043945 71.74682617 C41.95396294 68.77305998 41.19869243 65.8016055 40.44335938 62.83007812 C39.96430735 60.92331177 39.48577186 59.01641554 39.0078125 57.109375 C38.7828862 56.22920212 38.5579599 55.34902924 38.32621765 54.44218445 C38.12212784 53.61974747 37.91803802 52.79731049 37.70776367 51.94995117 C37.52743088 51.23369064 37.34709808 50.51743011 37.16130066 49.77946472 C36.72946907 47.36075818 36.7134026 45.08086724 36.77734375 42.62890625 C35.80800903 42.64222992 35.80800903 42.64222992 34.8190918 42.65582275 C28.07040281 42.7445745 21.32188066 42.80475603 14.57275391 42.84863281 C12.05673484 42.86870141 9.54076214 42.89596255 7.02490234 42.93066406 C3.40059947 42.97938937 -0.22308466 43.00192347 -3.84765625 43.01953125 C-5.52468628 43.05049896 -5.52468628 43.05049896 -7.2355957 43.08209229 C-14.90391988 43.08427691 -20.27388047 42.03644057 -26.24609375 36.8828125 C-26.69210938 36.32464844 -27.138125 35.76648438 -27.59765625 35.19140625 C-28.05914062 34.63582031 -28.520625 34.08023438 -28.99609375 33.5078125 C-32.67879236 27.8664812 -33.19784677 22.19167491 -32.22265625 15.62890625 C-29.77927921 9.06058851 -26.34384439 5.01065088 -20.21180725 1.70373535 C-13.77972997 -0.60908988 -6.75398669 -0.06089276 0 0 Z " fill="#D0D6DF" transform="translate(231.22265625,241.37109375)"/>
<path d="M0 0 C2.23606799 -0.00962164 4.47118144 -0.04066351 6.70703125 -0.07226562 C19.4764612 -0.16709206 31.50243869 1.74106175 43.64453125 5.86523438 C44.38646729 6.11611816 45.12840332 6.36700195 45.89282227 6.62548828 C78.24740625 18.07934608 102.43450657 42.87636291 117.046875 73.40039062 C119.4127937 78.53572796 121.20920823 83.81000128 122.76953125 89.24023438 C123.28 90.91472656 123.28 90.91472656 123.80078125 92.62304688 C127.08800914 104.89713168 127.14945388 117.62799979 126.76953125 130.24023438 C126.73988281 131.39523437 126.71023438 132.55023438 126.6796875 133.74023438 C125.42426019 158.72629984 113.58644026 183.28465748 97.76953125 202.24023438 C97.02703125 203.13613281 96.28453125 204.03203125 95.51953125 204.95507812 C90.17314815 211.15115425 84.3169812 216.34220596 77.76953125 221.24023438 C77.22586914 221.64773926 76.68220703 222.05524414 76.12207031 222.47509766 C63.37693069 231.88015668 49.40027078 237.85309702 34.20703125 242.17773438 C33.50602295 242.37729736 32.80501465 242.57686035 32.08276367 242.7824707 C3.03001921 250.47885736 -31.22959833 244.82347523 -57.17773438 230.13818359 C-88.61618183 211.19965 -107.61359691 183.24710496 -117.23046875 148.24023438 C-117.23046875 147.58023438 -117.23046875 146.92023438 -117.23046875 146.24023438 C-242.30046875 146.24023438 -367.37046875 146.24023438 -496.23046875 146.24023438 C-496.23046875 145.91023437 -496.23046875 145.58023438 -496.23046875 145.24023438 C-371.16046875 145.24023438 -246.09046875 145.24023438 -117.23046875 145.24023438 C-117.89046875 141.28023437 -118.55046875 137.32023438 -119.23046875 133.24023438 C-119.4074065 129.55836792 -119.5187139 125.9775659 -119.48046875 122.30273438 C-119.47370117 121.34544434 -119.46693359 120.3881543 -119.45996094 119.40185547 C-119.35499739 112.1923243 -118.77594751 105.29644883 -117.23046875 98.24023438 C-116.97394531 96.99371094 -116.71742188 95.7471875 -116.453125 94.46289062 C-109.91819703 64.59049792 -91.00312128 36.97103818 -65.39453125 20.22460938 C-63.82832031 19.24234375 -63.82832031 19.24234375 -62.23046875 18.24023438 C-61.28945313 17.62664062 -60.3484375 17.01304687 -59.37890625 16.38085938 C-41.22783833 5.0801945 -21.20740545 0.05494146 0 0 Z " fill="#554F6E" transform="translate(818.23046875,180.759765625)"/>
<path d="M0 0 C0.72958347 -0.00453111 1.45916694 -0.00906223 2.210859 -0.01373065 C4.65041832 -0.02636949 7.08975425 -0.02475462 9.52934265 -0.02310181 C11.2806273 -0.02908741 13.03190932 -0.03589303 14.78318787 -0.04345703 C19.53742366 -0.06112165 24.29158746 -0.06581263 29.0458529 -0.0670886 C32.01740469 -0.06851057 34.98893821 -0.07278105 37.96048546 -0.07808304 C48.33094316 -0.09658529 58.70134946 -0.10475346 69.07182312 -0.10317993 C78.73247081 -0.10197869 88.39289502 -0.12307723 98.05348617 -0.15466726 C106.35259243 -0.18083634 114.65162574 -0.19154695 122.95077294 -0.19026911 C127.90524316 -0.18975964 132.8595148 -0.19543478 137.81394386 -0.21662521 C142.47534565 -0.23601804 147.13635964 -0.23612492 151.79777527 -0.22159195 C153.50534826 -0.219504 155.21294558 -0.22420391 156.92047691 -0.23631287 C166.99302214 -0.30309672 174.26498323 -0.14424762 182.4070282 6.51742554 C186.99657901 12.12687652 189.4984134 17.29987399 189.16874695 24.67758179 C187.90146134 31.0914013 184.18942394 36.46498145 178.9695282 40.32992554 C174.28641783 43.0691033 170.75698757 43.41600676 165.4786377 43.41459656 C164.74259597 43.41827325 164.00655424 43.42194993 163.24820822 43.42573804 C160.77485539 43.43677592 158.30154456 43.4406189 155.82817078 43.44442749 C154.0574785 43.4506921 152.28678754 43.4573389 150.51609802 43.46434021 C144.69459448 43.48538458 138.87309067 43.49574344 133.05155945 43.50570679 C131.04735996 43.5097543 129.04316061 43.51387122 127.03896141 43.51805687 C117.62246288 43.53710994 108.2059722 43.55134032 98.7894581 43.55966884 C87.92140882 43.56943992 77.05356329 43.59575562 66.1855858 43.63616973 C57.78461879 43.66633722 49.38371016 43.68113835 40.98269004 43.68444985 C35.96557974 43.68679977 30.94868707 43.69575255 25.9316349 43.72091103 C21.20954083 43.74420754 16.48780744 43.7484186 11.76567078 43.73814964 C10.03551725 43.73765454 8.30534587 43.74396734 6.57524681 43.75770569 C-10.98694578 43.88932444 -10.98694578 43.88932444 -18.3664093 37.52133179 C-18.81242493 36.96316772 -19.25844055 36.40500366 -19.7179718 35.82992554 C-20.17945618 35.2743396 -20.64094055 34.71875366 -21.1164093 34.14633179 C-24.83181369 28.45490022 -25.0672752 22.87901554 -24.3429718 16.26742554 C-22.53353754 9.57939002 -18.1985379 5.69135059 -12.3429718 2.26742554 C-8.13565753 0.21439527 -4.65887437 0.01196552 0 0 Z " fill="#1F1F30" transform="translate(479.3429718017578,496.7325744628906)"/>
<path d="M0 0 C0.87140625 -0.00386719 1.7428125 -0.00773438 2.640625 -0.01171875 C3.48625 -0.01042969 4.331875 -0.00914062 5.203125 -0.0078125 C5.95754883 -0.00668457 6.71197266 -0.00555664 7.48925781 -0.00439453 C9.75 0.125 9.75 0.125 14.75 1.125 C14.75 8.055 14.75 14.985 14.75 22.125 C12.44 21.795 10.13 21.465 7.75 21.125 C-5.17040784 20.15770387 -17.830329 20.40155451 -28.25 29.125 C-35.17216741 36.60980663 -37.67855946 44.14578249 -37.35546875 54.25390625 C-37.30326172 55.18009766 -37.30326172 55.18009766 -37.25 56.125 C-36.59 55.238125 -35.93 54.35125 -35.25 53.4375 C-31.02206476 48.36878218 -25.81283274 45.04511103 -19.25 44.125 C-9.88902803 43.51166027 -1.64276826 43.39141642 6.75 48.125 C7.39324219 48.475625 8.03648437 48.82625 8.69921875 49.1875 C15.36176983 53.34978788 19.97301406 60.5324237 21.75 68.125 C24.39487535 83.2007895 23.07661152 97.0758327 14.75 110.125 C6.48399064 119.52166499 -3.0755712 123.35462812 -15.3203125 124.3828125 C-28.48321847 124.85858019 -39.52519686 121.10174136 -49.25 112.125 C-62.7814816 97.36338371 -62.85617419 77.86458941 -62.38623047 59.05224609 C-61.57871078 41.70070303 -55.76374557 25.0250161 -43.0625 12.875 C-30.41695125 2.19653661 -15.95382412 -0.07208053 0 0 Z " fill="#CFD5DE" transform="translate(840.25,239.875)"/>
<path d="M0 0 C9.04084949 6.78840417 15.81064427 15.93113039 17.94140625 27.2578125 C19.22609236 40.60343414 17.73673413 52.23913996 8.9375 62.93359375 C0.17009191 72.27726341 -9.11133806 77.73078809 -22.11914062 78.18969727 C-35.40522686 78.29285913 -45.77123104 74.7921733 -55.53515625 65.26953125 C-64.58627687 54.68568967 -67.47857749 44.3904344 -66.7265625 30.70703125 C-65.71588831 19.54071158 -60.39033545 10.34163969 -52.28515625 2.71484375 C-36.90202522 -9.35680411 -16.50041295 -10.9735756 0 0 Z " fill="#1F1F30" transform="translate(734.7265625,760.29296875)"/>
<path d="M0 0 C9.05149621 9.59909563 13.07409505 18.74095047 14.375 31.75 C14.08931008 41.12062946 10.59930486 50.55857856 5 58 C4.443125 58.845625 3.88625 59.69125 3.3125 60.5625 C-5.0356529 69.3619044 -15.38140948 74.00709881 -27.44702148 74.41967773 C-41.08307221 74.52814801 -50.27064052 70.51788544 -60.25 61.25 C-68.90386701 52.23411863 -71.46131869 41.04640468 -71.43164062 28.91796875 C-71.13869423 17.31351173 -66.09922811 8.18694538 -58 0 C-41.07068814 -14.17906264 -16.93433733 -14.51514628 0 0 Z " fill="#1E1F2F" transform="translate(441,764)"/>
<path d="M0 0 C4.60645429 2.26385574 7.05629166 5.71184171 8.953125 10.3359375 C9.50899291 13.17215812 9.57402368 15.88931684 9.515625 18.7734375 C9.50245239 19.89721802 9.50245239 19.89721802 9.48901367 21.04370117 C9.27144404 26.92578279 8.12298125 31.01466189 3.953125 35.3359375 C3.2725 36.1609375 2.591875 36.9859375 1.890625 37.8359375 C-2.92657253 40.29578305 -7.75878331 40.04627818 -13.046875 39.3359375 C-19.0226874 36.45474224 -22.49618783 32.23893807 -24.796875 26.0859375 C-26.41929551 20.65082878 -27.26351251 15.59793663 -25.23828125 10.16796875 C-20.17752658 0.8344662 -10.1578246 -3.29547745 0 0 Z " fill="#585170" transform="translate(829.046875,303.6640625)"/>
</svg>
